<svg version="1.1" id="Layer_1" xmlns="http://www.w3.org/2000/svg" xmlns:xlink="http://www.w3.org/1999/xlink" x="0px" y="0px"
	 width="100%" viewBox="0 0 4610 4609" enable-background="new 0 0 4610 4609" xml:space="preserve">
<path fill="#FFFFFF" opacity="1.000000" stroke="none" 
	d="
M2952.000000,4616.000000 
	C1968.000000,4616.000000 986.000000,4616.000000 4.000000,4616.000000 
	C4.000000,3078.666748 4.000000,1541.333374 4.000000,4.000001 
	C1541.333374,4.000000 3078.666748,4.000000 4616.000000,4.000000 
	C4616.000000,1541.333374 4616.000000,3078.666748 4616.000000,4616.000000 
	C4062.000000,4616.000000 3508.000000,4616.000000 2952.000000,4616.000000 
M4309.700195,2681.549805 
	C4275.042969,2717.466064 4239.950684,2752.974365 4205.812012,2789.376709 
	C4114.297363,2886.959473 4023.101318,2984.841309 3931.958252,3082.771240 
	C3881.627930,3136.849121 3831.640137,3191.246338 3781.564941,3245.561523 
	C3778.078613,3249.342773 3775.149902,3253.638184 3771.659912,3258.078613 
	C3807.673828,3295.859375 3845.699951,3330.143066 3883.260254,3366.809326 
	C3863.425537,3385.601074 3854.899902,3408.294189 3855.861572,3435.697510 
	C3790.600342,3437.161621 3725.344482,3439.392334 3660.076172,3439.850342 
	C3606.771973,3440.224121 3553.508057,3440.638428 3500.318115,3444.341064 
	C3485.799805,3445.351562 3471.307861,3446.736328 3455.815186,3448.032227 
	C3454.460938,3455.977295 3452.821289,3463.035156 3452.125732,3470.184814 
	C3450.385010,3488.077393 3449.171387,3506.020264 3447.567627,3523.927246 
	C3443.818604,3565.788330 3442.189941,3607.626221 3448.204834,3649.438721 
	C3448.483398,3651.374268 3448.021973,3653.416016 3444.193604,3654.919678 
	C3362.420410,3654.892822 3280.647217,3654.934082 3198.874268,3654.785645 
	C3180.943115,3654.753174 3163.009033,3653.593750 3145.082764,3653.742432 
	C3109.212158,3654.040039 3073.347168,3654.993164 3037.476807,3655.390381 
	C3031.630127,3655.455322 3025.767090,3654.058105 3018.584961,3650.106934 
	C3017.874023,3643.523193 3016.637939,3636.947998 3016.531982,3630.354492 
	C3015.226074,3549.114502 3013.055908,3467.871094 3013.096191,3386.629639 
	C3013.212402,3152.844971 3014.180908,2919.060547 3014.931396,2685.276367 
	C3015.299072,2570.713379 3015.972168,2456.151611 3016.333984,2341.588623 
	C3016.359131,2333.652100 3015.504395,2325.608887 3014.096436,2317.788818 
	C3007.062012,2278.722168 2991.969482,2242.601074 2973.158203,2207.893555 
	C2958.417236,2180.695068 2939.422119,2156.636475 2916.627197,2135.963135 
	C2890.880615,2112.613037 2862.106934,2092.994385 2830.995605,2077.632324 
	C2784.362305,2054.606445 2735.483154,2036.860474 2685.216553,2023.642212 
	C2630.545410,2009.265625 2575.407471,1996.667725 2520.496338,1983.199097 
	C2515.338379,1981.933960 2510.329834,1980.041870 2505.282715,1978.348877 
	C2485.732910,1971.791748 2466.261230,1964.991577 2446.612061,1958.748169 
	C2441.059570,1956.984009 2435.002441,1956.807495 2427.657227,1953.556152 
	C2417.780273,1944.769287 2407.498047,1936.392700 2398.105225,1927.115601 
	C2374.057617,1903.364258 2352.507324,1877.390625 2333.497314,1849.491699 
	C2325.372314,1837.567383 2317.644043,1824.723755 2313.110352,1811.169189 
	C2307.720947,1795.057007 2305.962402,1777.730591 2303.969482,1758.343872 
	C2310.780762,1747.053833 2318.020020,1735.994629 2324.272217,1724.402954 
	C2329.591553,1714.540771 2334.048584,1704.180298 2338.375488,1693.826294 
	C2342.181641,1684.718140 2346.268799,1675.546265 2348.512451,1665.998535 
	C2356.824463,1630.626099 2364.904297,1595.175903 2370.501709,1557.749878 
	C2370.526855,1555.770996 2370.552002,1553.792236 2370.459473,1548.473511 
	C2370.173828,1542.920410 2369.888184,1537.367310 2372.735107,1532.692627 
	C2376.176270,1534.672485 2379.466553,1537.005005 2383.091553,1538.554443 
	C2389.453125,1541.273193 2396.325928,1541.913696 2402.372803,1538.357178 
	C2418.006104,1529.162476 2430.990723,1518.136841 2438.567139,1500.225586 
	C2451.672852,1469.242432 2458.327393,1436.818237 2463.052979,1404.021606 
	C2466.093750,1382.921387 2463.618652,1361.500610 2455.733154,1341.233276 
	C2453.118164,1334.512695 2451.004639,1327.205688 2443.878174,1321.485229 
	C2461.133057,1297.651245 2468.917480,1270.374390 2473.145508,1241.730225 
	C2477.156006,1214.555786 2477.225830,1187.238281 2475.754150,1159.950928 
	C2475.040527,1146.720215 2473.177246,1133.378784 2470.122559,1120.493286 
	C2466.698242,1106.047607 2464.887939,1091.889038 2466.983887,1077.080811 
	C2469.271484,1060.921265 2467.278809,1045.172729 2459.446289,1030.523071 
	C2457.249268,1026.414429 2454.926514,1022.373352 2452.663818,1018.299927 
	C2447.450439,1008.914185 2443.446289,999.256897 2442.958496,988.219360 
	C2442.400879,975.601074 2440.769287,963.033203 2440.052734,950.417969 
	C2439.510742,940.874939 2438.148926,931.336609 2431.455811,924.400696 
	C2415.867188,908.247192 2402.540527,889.222717 2379.632080,881.757507 
	C2375.320801,880.352600 2371.373535,877.403687 2367.684082,874.605652 
	C2360.112305,868.863220 2351.734619,865.251709 2342.548584,862.932739 
	C2324.503662,858.377319 2306.549316,853.458252 2288.592285,848.561646 
	C2282.843506,846.994019 2276.369629,846.234985 2271.677734,843.001465 
	C2259.341797,834.499939 2245.387207,830.458740 2231.572266,825.639954 
	C2222.828125,822.589844 2214.666260,817.911316 2206.086182,814.339844 
	C2193.216309,808.982788 2180.168945,804.052551 2167.274902,798.751770 
	C2160.019775,795.769226 2152.990234,796.340027 2145.898682,799.106079 
	C2141.566162,800.795837 2137.095215,802.166443 2132.867188,804.079773 
	C2125.420654,807.449646 2117.713867,808.717224 2109.569580,808.408569 
	C2088.282959,807.602112 2066.983154,807.130920 2045.698608,806.277039 
	C2036.160156,805.894348 2027.148682,807.218445 2018.794800,812.065918 
	C2014.189941,814.738037 2009.591919,817.439209 2004.858643,819.869385 
	C1984.284668,830.432129 1962.724121,836.191223 1939.391602,832.804077 
	C1924.242188,830.604736 1909.142944,828.009399 1893.951294,826.168213 
	C1883.418945,824.891663 1872.770996,824.068665 1862.168457,824.001221 
	C1849.586914,823.921082 1838.489990,828.851807 1830.383179,838.401001 
	C1820.503052,850.038757 1810.127808,861.648315 1802.548584,874.762329 
	C1788.440063,899.174133 1769.754395,914.423828 1741.364380,921.175476 
	C1703.606812,930.154846 1676.038086,953.666077 1663.965332,991.954590 
	C1658.577881,1009.041138 1652.719360,1026.449219 1650.926025,1044.102661 
	C1647.027344,1082.480469 1645.482300,1121.105591 1646.456665,1159.750366 
	C1646.473389,1160.415161 1646.550049,1161.080688 1646.633911,1161.741333 
	C1651.495850,1200.019775 1655.863281,1238.370361 1661.416992,1276.548218 
	C1664.652466,1298.790039 1673.648438,1318.611938 1691.585205,1333.523682 
	C1694.970215,1336.337646 1697.067749,1340.700073 1696.875977,1343.708008 
	C1694.891968,1343.519531 1692.898560,1343.400513 1690.925415,1343.131836 
	C1674.230957,1340.858154 1665.609741,1344.767090 1658.562012,1359.325073 
	C1655.437012,1365.780396 1653.633789,1372.994263 1652.030273,1380.045654 
	C1646.660278,1403.659180 1648.117554,1427.708618 1648.738647,1451.583740 
	C1649.502075,1480.934692 1662.083862,1506.782227 1675.127563,1532.306274 
	C1675.724243,1533.473877 1676.673462,1534.467773 1677.498413,1535.511230 
	C1688.063110,1548.874756 1701.493408,1553.872681 1718.082275,1549.135010 
	C1723.815674,1547.497681 1729.416382,1545.395996 1735.703369,1546.978394 
	C1738.104492,1565.993530 1740.197632,1585.054688 1743.040039,1604.003662 
	C1744.408203,1613.124634 1746.026367,1622.516357 1749.529419,1630.956177 
	C1765.598633,1669.670166 1785.468262,1706.240845 1812.329712,1741.254639 
	C1813.633301,1780.824219 1807.796753,1819.440063 1795.717651,1857.019287 
	C1786.517822,1885.640137 1774.343628,1912.867554 1754.401733,1936.023193 
	C1747.056030,1944.552734 1740.472412,1953.738403 1730.515381,1964.043823 
	C1699.645752,1972.253174 1668.618286,1979.606689 1637.068604,1984.930054 
	C1594.416992,1992.126465 1551.979126,2000.541626 1510.284302,2012.277344 
	C1496.833740,2016.063232 1483.571045,2020.720337 1469.929810,2023.586182 
	C1429.370483,2032.107056 1390.368408,2045.361328 1352.122070,2061.013428 
	C1329.757080,2070.165771 1309.849487,2083.032715 1291.673828,2099.222168 
	C1258.393433,2128.866211 1233.201538,2164.669922 1210.223267,2202.277100 
	C1196.611084,2224.555176 1186.897827,2248.586182 1179.954468,2273.769287 
	C1164.160645,2331.052002 1154.557373,2389.468994 1148.708496,2448.486084 
	C1143.451660,2501.530029 1141.587646,2554.795654 1140.920898,2608.087402 
	C1140.062744,2676.688232 1139.366211,2745.291016 1138.590332,2813.893066 
	C1138.560059,2816.555908 1138.438721,2819.218018 1138.342773,2821.880127 
	C1136.282471,2879.120361 1133.353027,2936.345703 1132.374390,2993.604492 
	C1131.122314,3066.862061 1131.600708,3140.147217 1131.001709,3213.417969 
	C1130.778564,3240.719238 1129.378174,3268.009277 1128.931519,3295.311035 
	C1127.319214,3393.880127 1126.019287,3492.454346 1124.278320,3591.020752 
	C1123.890625,3612.973145 1122.186890,3634.901855 1118.067017,3658.422119 
	C1078.762329,3658.650391 1039.458008,3658.980713 1000.153015,3659.083740 
	C937.511719,3659.247803 874.869934,3659.264648 812.228394,3659.331543 
	C806.898560,3659.337158 801.477112,3659.816162 796.275330,3658.976807 
	C793.470520,3658.524414 791.041565,3655.741943 790.511841,3651.043945 
	C818.337952,3560.119141 846.343811,3469.248535 873.893921,3378.240234 
	C883.707703,3345.821777 893.913147,3313.454590 902.823547,3278.509277 
	C918.129517,3277.969971 933.442261,3277.566406 948.736511,3276.794922 
	C952.466187,3276.606689 956.134888,3275.211182 959.476868,3274.451660 
	C966.986633,3203.819092 968.080322,3162.650635 962.913086,3139.487061 
	C960.021545,3139.181641 956.817383,3138.581055 953.606873,3138.544922 
	C925.637207,3138.229004 897.666199,3137.798340 869.695740,3137.808838 
	C778.442871,3137.842773 687.189941,3138.093506 595.937073,3138.109131 
	C588.019897,3138.110352 580.102600,3136.995361 572.753113,3133.274658 
	C578.474670,3105.304688 582.836609,3077.148926 594.863403,3050.661377 
	C612.342834,3012.164551 636.460876,2978.157227 661.209900,2943.937012 
	C696.309814,2950.706787 728.041321,2941.618164 759.087158,2928.511963 
	C767.056396,2925.147461 775.029419,2921.790039 782.953796,2918.322510 
	C795.839233,2912.683838 807.631348,2905.312744 818.639404,2896.510742 
	C861.135925,2862.529297 891.646240,2819.466553 915.602356,2771.066895 
	C942.629150,2716.463623 960.982971,2658.862793 976.551086,2600.232666 
	C978.939575,2591.237305 980.801636,2582.075195 982.361694,2572.897461 
	C983.247009,2567.688965 983.461060,2562.268799 983.178040,2556.986816 
	C982.892822,2551.664551 981.843079,2546.049072 975.850647,2543.952637 
	C968.965027,2541.543701 964.524414,2545.638916 960.671570,2550.619385 
	C960.264832,2551.145264 959.951416,2551.742188 959.555908,2552.277832 
	C945.990906,2570.651611 929.352356,2586.172119 911.759338,2600.350098 
	C868.649780,2635.091309 822.233765,2665.310791 774.960266,2693.885498 
	C710.237000,2733.006836 666.959595,2787.613770 646.273376,2860.283447 
	C641.298157,2877.760986 638.617371,2895.410156 640.890015,2913.578857 
	C641.457092,2918.112061 642.263245,2922.615479 642.793396,2926.055176 
	C630.291809,2943.312256 617.866333,2959.039795 607.046143,2975.803467 
	C596.344666,2992.383057 587.264038,3010.009033 576.950439,3028.091309 
	C571.564941,3018.032959 572.982910,3008.575195 572.803345,2999.347412 
	C572.090515,2962.705811 572.940857,2925.955322 570.365601,2889.445801 
	C566.140747,2829.551514 564.282227,2769.666992 565.018494,2709.666260 
	C565.075012,2705.062744 565.496094,2700.463867 565.766479,2695.519043 
	C569.851013,2692.704102 573.569824,2690.010254 577.415344,2687.510742 
	C641.029663,2646.167969 679.013489,2587.201172 696.658020,2514.228027 
	C704.709290,2480.930420 706.085327,2447.019287 705.755066,2412.985596 
	C705.009155,2336.135498 693.613708,2260.321777 682.826599,2184.480713 
	C680.967468,2171.409912 677.104980,2158.474365 672.803650,2145.944580 
	C668.876831,2134.506104 663.240784,2130.665283 656.062256,2131.845215 
	C647.317993,2133.282715 644.723877,2139.921143 643.040894,2147.484619 
	C635.863159,2179.743652 621.098389,2208.774658 604.546936,2237.008789 
	C598.821533,2246.775146 592.868347,2256.410156 586.908691,2266.036621 
	C569.378540,2294.353271 551.618958,2322.529053 534.285278,2350.964844 
	C520.757996,2373.156738 508.456329,2396.010254 498.747894,2420.200684 
	C480.540314,2465.568848 473.396088,2512.364746 479.315399,2561.098145 
	C482.547455,2587.706787 489.715607,2613.286865 498.022156,2638.614502 
	C505.401428,2661.114746 515.725037,2681.771729 535.477661,2694.830322 
	C539.163696,2804.535889 542.813049,2913.003174 546.341248,3021.474609 
	C546.363281,3022.151367 544.701172,3022.883301 543.819519,3023.582031 
	C543.256714,3023.409424 542.372192,3023.407715 542.177185,3023.040039 
	C530.274170,3000.600098 516.405762,2979.520752 499.040161,2960.887207 
	C494.503387,2956.019287 494.362335,2950.759277 495.034302,2944.345215 
	C501.086334,2886.580811 485.353333,2835.005127 450.152130,2789.042969 
	C432.632660,2766.167480 412.843872,2745.495361 390.339630,2727.583740 
	C363.755280,2706.425049 336.799103,2685.727539 309.796722,2665.101807 
	C286.860260,2647.582031 261.173157,2634.957520 234.396759,2624.556396 
	C228.298141,2622.187500 221.611237,2620.460205 215.117081,2620.167480 
	C202.428009,2619.595459 195.297729,2628.665039 198.164886,2640.948730 
	C199.367294,2646.100098 201.550873,2651.026367 203.343414,2656.035400 
	C219.481735,2701.128662 238.976685,2745.054932 250.275269,2791.832764 
	C253.243591,2804.122070 256.659729,2816.314209 260.234619,2828.443604 
	C267.579254,2853.363525 275.589478,2878.046387 287.558655,2901.247314 
	C296.482819,2918.545654 306.831451,2934.964844 321.590118,2947.776367 
	C362.127136,2982.966309 407.881439,2993.162598 459.104095,2974.869385 
	C462.684601,2973.590576 466.288818,2972.377686 470.666321,2970.862793 
	C483.631012,2988.823242 496.152710,3006.008545 508.451508,3023.352295 
	C510.734833,3026.572266 512.399963,3030.317139 513.875671,3034.009521 
	C522.760010,3056.237061 531.822205,3078.402100 540.169373,3100.832275 
	C544.565857,3112.646240 547.632935,3124.954834 547.170471,3137.843262 
	C509.899780,3138.228516 472.629425,3138.652100 435.358307,3138.989990 
	C378.780029,3139.502686 322.198822,3139.781250 265.624268,3140.554199 
	C251.009842,3140.753662 236.404144,3142.289062 221.818115,3143.496826 
	C216.613937,3143.927734 211.127426,3144.429199 206.620773,3151.583496 
	C206.620773,3158.272949 206.596802,3166.875244 206.625168,3175.477295 
	C206.717270,3203.412598 206.725250,3231.349121 207.039795,3259.281982 
	C207.089005,3263.651855 208.566101,3268.005615 209.441299,3272.678467 
	C234.927002,3276.125000 259.587463,3275.088623 284.699341,3279.217285 
	C292.466797,3310.132812 303.436798,3339.985596 315.120422,3369.568604 
	C350.658142,3459.550537 386.428375,3549.440186 421.970490,3639.420410 
	C424.587677,3646.046387 429.454926,3652.169922 424.098907,3659.895264 
	C384.784027,3660.042236 345.469025,3660.174316 306.154785,3660.412598 
	C305.043488,3660.419189 303.938995,3661.554443 302.833771,3662.167969 
	C301.024597,3676.390869 302.293243,3767.803223 304.637756,3784.177734 
	C308.259491,3784.602295 312.094513,3785.370850 315.943512,3785.448730 
	C334.600250,3785.826172 353.260071,3786.179443 371.919922,3786.250488 
	C515.231018,3786.795654 658.542603,3787.760254 801.853455,3787.678223 
	C1194.470947,3787.453125 1587.088013,3786.663086 1979.705444,3786.331787 
	C2176.348389,3786.165771 2372.991943,3786.449707 2569.635010,3786.660645 
	C2638.291016,3786.734131 2706.946777,3787.112549 2775.602051,3787.501465 
	C2951.567871,3788.498047 3127.532471,3790.274414 3303.499023,3790.447998 
	C3518.798340,3790.660400 3734.098633,3789.576172 3949.398682,3789.011230 
	C4003.390137,3788.869629 4057.381104,3788.604980 4111.371582,3788.300781 
	C4117.840332,3788.264404 4124.305664,3787.622314 4131.566406,3787.216309 
	C4131.566406,3771.428467 4131.629883,3756.903809 4131.548828,3742.379639 
	C4131.470703,3728.382324 4131.581055,3714.371338 4130.988770,3700.392822 
	C4130.377930,3685.973145 4133.181641,3671.344238 4129.405273,3657.135498 
	C4116.109863,3654.001953 4103.468262,3654.974609 4090.457520,3652.104248 
	C4088.300049,3638.373535 4085.860596,3624.679199 4084.077148,3610.900146 
	C4082.716553,3600.388428 4081.876709,3589.783936 4081.360107,3579.193848 
	C4080.585205,3563.296387 4079.776855,3547.371582 4079.906982,3531.465820 
	C4080.184814,3497.532227 4076.347656,3464.002930 4072.135254,3431.643066 
	C4066.156494,3424.377197 4059.482910,3422.697021 4051.736816,3422.965332 
	C4031.839844,3423.655273 4011.931152,3424.006592 3990.569092,3421.531006 
	C3990.278076,3418.220459 3990.105225,3414.894775 3989.677002,3411.602051 
	C3985.961914,3383.049316 3970.883789,3364.047852 3943.068359,3352.819092 
	C3950.008545,3327.150879 3957.363037,3301.584473 3963.704590,3275.769287 
	C3966.638184,3263.826904 3971.724854,3253.891602 3979.881348,3244.546143 
	C4094.145020,3113.630127 4208.374512,2982.682617 4322.013672,2851.225098 
	C4359.437012,2807.933350 4395.150391,2763.163086 4433.973633,2717.437744 
	C4436.810059,2713.267822 4441.146484,2712.062500 4445.774414,2710.921143 
	C4470.924316,2704.720215 4495.958008,2698.037109 4521.162598,2692.074463 
	C4534.750977,2688.859619 4547.267578,2683.560791 4560.674805,2676.478760 
	C4558.464355,2672.815918 4557.086914,2669.947998 4555.188965,2667.480469 
	C4536.937500,2643.745361 4518.765625,2619.946045 4500.242676,2596.423584 
	C4474.721191,2564.015137 4448.956543,2531.796875 4423.167969,2499.600098 
	C4420.470703,2496.232910 4418.380371,2491.400635 4412.698242,2492.102539 
	C4407.013184,2500.274658 4401.450195,2508.270752 4393.691406,2514.737549 
	C4317.382324,2451.468750 4241.062012,2388.212646 4164.767090,2324.927246 
	C4109.461914,2279.052490 4054.420410,2232.920166 4000.975830,2184.812744 
	C3961.969482,2149.702393 3920.322510,2117.486572 3879.279785,2084.697510 
	C3862.700684,2071.452637 3844.398682,2060.387451 3827.239746,2047.839722 
	C3807.941162,2033.727539 3789.047607,2019.061279 3769.913574,2004.587280 
	C3739.923096,2002.543213 3710.022705,2002.135010 3678.868164,2001.718262 
	C3660.526123,1990.436279 3642.098633,1979.288086 3623.947754,1967.706543 
	C3621.622803,1966.223267 3620.736816,1962.484985 3620.258301,1957.118042 
	C3624.029785,1949.336060 3627.800781,1941.553833 3631.573486,1933.772461 
	C3648.105469,1899.677124 3666.962646,1866.682373 3680.244873,1831.050537 
	C3681.808838,1826.855347 3683.046631,1822.538330 3684.150146,1819.153198 
	C3635.244385,1774.828369 3587.394531,1731.448730 3539.485596,1688.134033 
	C3538.600586,1687.333862 3537.012939,1687.311279 3534.453125,1686.528320 
	C3531.218994,1688.029419 3527.011719,1689.851685 3522.918213,1691.901123 
	C3401.534668,1752.668823 3280.514160,1814.140259 3160.876953,1878.302734 
	C3144.481934,1887.095581 3127.261719,1894.413818 3111.200195,1903.750610 
	C3083.557617,1919.819458 3068.987549,1943.297974 3072.646729,1976.512573 
	C3078.142822,2026.402710 3092.839600,2072.779297 3123.052002,2113.525391 
	C3129.400146,2122.087158 3135.363770,2130.940918 3141.885742,2139.364990 
	C3164.008057,2167.939697 3188.994385,2194.103027 3217.202148,2216.374023 
	C3262.639160,2252.248291 3313.581055,2277.349365 3370.983887,2289.150879 
	C3400.117432,2295.140381 3426.435791,2290.740234 3451.777100,2276.608154 
	C3465.910645,2268.726562 3476.897705,2258.580078 3484.223145,2243.055176 
	C3510.920654,2186.474365 3538.964111,2130.528076 3566.617188,2074.400391 
	C3569.210449,2069.137451 3572.629883,2064.281738 3577.894531,2060.986084 
	C3590.084961,2067.579834 3602.074219,2074.589844 3614.541748,2080.609863 
	C3621.904785,2084.165039 3628.232666,2088.302734 3632.991943,2098.283203 
	C3644.946045,2119.772949 3656.978027,2141.219971 3668.812500,2162.775391 
	C3673.026611,2170.451172 3678.138184,2177.208496 3684.927734,2182.837646 
	C3713.596436,2206.607666 3741.589600,2231.226562 3770.828369,2254.268066 
	C3906.686523,2361.329102 4042.782227,2468.089355 4179.004883,2574.686523 
	C4221.425293,2607.881592 4264.511719,2640.225586 4307.606934,2675.013916 
	C4308.945801,2676.589844 4310.284668,2678.166016 4309.700195,2681.549805 
z"/>
<path fill="#01A7FF" opacity="1.000000" stroke="none" 
	d="
M1121.088989,3656.841553 
	C1122.186890,3634.901855 1123.890625,3612.973145 1124.278320,3591.020752 
	C1126.019287,3492.454346 1127.319214,3393.880127 1128.931519,3295.311035 
	C1129.378174,3268.009277 1130.778564,3240.719238 1131.001709,3213.417969 
	C1131.600708,3140.147217 1131.122314,3066.862061 1132.374390,2993.604492 
	C1133.353027,2936.345703 1136.282471,2879.120361 1138.342773,2821.880127 
	C1138.438721,2819.218018 1138.560059,2816.555908 1138.590332,2813.893066 
	C1139.366211,2745.291016 1140.062744,2676.688232 1140.920898,2608.087402 
	C1141.587646,2554.795654 1143.451660,2501.530029 1148.708496,2448.486084 
	C1154.557373,2389.468994 1164.160645,2331.052002 1179.954468,2273.769287 
	C1186.897827,2248.586182 1196.611084,2224.555176 1210.223267,2202.277100 
	C1233.201538,2164.669922 1258.393433,2128.866211 1291.673828,2099.222168 
	C1309.849487,2083.032715 1329.757080,2070.165771 1352.122070,2061.013428 
	C1390.368408,2045.361328 1429.370483,2032.107056 1469.929810,2023.586182 
	C1483.571045,2020.720337 1496.833740,2016.063232 1510.284302,2012.277344 
	C1551.979126,2000.541626 1594.416992,1992.126465 1637.068604,1984.930054 
	C1668.618286,1979.606689 1699.645752,1972.253174 1733.250000,1963.788818 
	C1741.350098,1967.397461 1746.990356,1970.935059 1752.032959,1975.182373 
	C1772.425049,1992.358398 1792.708008,2009.666138 1812.895996,2027.082031 
	C1894.658936,2097.617920 1976.361328,2168.223877 2058.134766,2238.747559 
	C2062.057373,2242.130615 2066.443359,2244.976318 2070.666016,2248.111328 
	C2190.650391,2150.316650 2309.913574,2053.109619 2429.176758,1955.902832 
	C2435.002441,1956.807495 2441.059570,1956.984009 2446.612061,1958.748169 
	C2466.261230,1964.991577 2485.732910,1971.791748 2505.282715,1978.348877 
	C2510.329834,1980.041870 2515.338379,1981.933960 2520.496338,1983.199097 
	C2575.407471,1996.667725 2630.545410,2009.265625 2685.216553,2023.642212 
	C2735.483154,2036.860474 2784.362305,2054.606445 2830.995605,2077.632324 
	C2862.106934,2092.994385 2890.880615,2112.613037 2916.627197,2135.963135 
	C2939.422119,2156.636475 2958.417236,2180.695068 2973.158203,2207.893555 
	C2991.969482,2242.601074 3007.062012,2278.722168 3014.096436,2317.788818 
	C3015.504395,2325.608887 3016.359131,2333.652100 3016.333984,2341.588623 
	C3015.972168,2456.151611 3015.299072,2570.713379 3014.931396,2685.276367 
	C3014.180908,2919.060547 3013.212402,3152.844971 3013.096191,3386.629639 
	C3013.055908,3467.871094 3015.226074,3549.114502 3016.531982,3630.354492 
	C3016.637939,3636.947998 3017.874023,3643.523193 3017.768555,3652.385254 
	C2995.105957,3654.812500 2973.259033,3655.121582 2951.413086,3655.068604 
	C2925.597656,3655.006104 2899.782471,3654.630615 2874.617188,3652.809082 
	C2875.843018,3645.356689 2876.798584,3639.493164 2876.906250,3633.614014 
	C2877.068359,3624.783203 2874.341064,3616.569824 2868.471680,3609.993164 
	C2861.088623,3601.720459 2854.113770,3592.835449 2843.820801,3586.013184 
	C2844.410156,3573.503662 2845.322754,3562.860840 2845.308350,3552.219238 
	C2844.836670,3206.941162 2844.282715,2861.663330 2843.633545,2516.385498 
	C2843.626709,2512.686523 2842.196777,2508.989990 2841.238281,2504.361328 
	C2824.382324,2504.361328 2808.435547,2504.424316 2792.489258,2504.352051 
	C2565.872559,2503.327637 2339.256836,2501.930664 2112.638916,2501.345459 
	C1884.023193,2500.755371 1655.400391,2498.054443 1426.791748,2502.708740 
	C1382.809448,2503.604248 1338.809326,2503.612549 1294.818970,2504.154541 
	C1290.364868,2504.209229 1285.921631,2505.129150 1280.938477,2505.709717 
	C1280.517456,2509.985352 1279.971436,2513.203125 1279.918823,2516.428711 
	C1279.439819,2545.750244 1278.690796,2575.073242 1278.686401,2604.395752 
	C1278.657349,2799.042480 1278.836060,2993.688965 1278.858887,3188.335693 
	C1278.871338,3294.990967 1278.614624,3401.646240 1278.694336,3508.301514 
	C1278.715210,3536.283936 1279.538330,3564.265625 1279.302490,3593.446777 
	C1266.485229,3604.964844 1262.184570,3618.358887 1263.479126,3633.813965 
	C1264.141968,3641.726807 1265.208496,3649.605469 1264.095703,3657.311279 
	C1242.227417,3657.147949 1222.355835,3657.230713 1202.484497,3657.184570 
	C1175.352539,3657.121582 1148.220825,3656.960449 1121.088989,3656.841553 
z"/>
<path fill="#66472C" opacity="1.000000" stroke="none" 
	d="
M2873.967285,3654.391113 
	C2899.782471,3654.630615 2925.597656,3655.006104 2951.413086,3655.068604 
	C2973.259033,3655.121582 2995.105957,3654.812500 3018.432129,3654.000000 
	C3025.767090,3654.058105 3031.630127,3655.455322 3037.476807,3655.390381 
	C3073.347168,3654.993164 3109.212158,3654.040039 3145.082764,3653.742432 
	C3163.009033,3653.593750 3180.943115,3654.753174 3198.874268,3654.785645 
	C3280.647217,3654.934082 3362.420410,3654.892822 3447.459717,3655.660400 
	C3453.194336,3657.087158 3455.693604,3658.438721 3458.125244,3658.326904 
	C3464.043945,3658.054199 3469.929443,3656.523926 3475.831055,3656.508301 
	C3599.632324,3656.179932 3723.433838,3655.964111 3847.235352,3655.786133 
	C3928.437500,3655.669189 4009.639648,3655.646484 4090.841797,3655.581543 
	C4103.468262,3654.974609 4116.109863,3654.001953 4129.405273,3657.135498 
	C4133.181641,3671.344238 4130.377930,3685.973145 4130.988770,3700.392822 
	C4131.581055,3714.371338 4131.470703,3728.382324 4131.548828,3742.379639 
	C4131.629883,3756.903809 4131.566406,3771.428467 4131.566406,3787.216309 
	C4124.305664,3787.622314 4117.840332,3788.264404 4111.371582,3788.300781 
	C4057.381104,3788.604980 4003.390137,3788.869629 3949.398682,3789.011230 
	C3734.098633,3789.576172 3518.798340,3790.660400 3303.499023,3790.447998 
	C3127.532471,3790.274414 2951.567871,3788.498047 2775.602051,3787.501465 
	C2706.946777,3787.112549 2638.291016,3786.734131 2569.635010,3786.660645 
	C2372.991943,3786.449707 2176.348389,3786.165771 1979.705444,3786.331787 
	C1587.088013,3786.663086 1194.470947,3787.453125 801.853455,3787.678223 
	C658.542603,3787.760254 515.231018,3786.795654 371.919922,3786.250488 
	C353.260071,3786.179443 334.600250,3785.826172 315.943512,3785.448730 
	C312.094513,3785.370850 308.259491,3784.602295 304.637756,3784.177734 
	C302.293243,3767.803223 301.024597,3676.390869 302.832581,3662.165771 
	C303.938995,3661.554443 305.043488,3660.419189 306.154785,3660.412598 
	C345.469025,3660.174316 384.784027,3660.042236 427.367859,3660.500488 
	C432.531555,3661.692627 434.741058,3663.224365 436.270508,3662.714844 
	C446.650787,3659.256348 457.320496,3660.147705 467.911438,3660.141357 
	C567.076111,3660.082520 666.240784,3660.093750 765.405457,3660.078613 
	C770.728210,3660.077881 776.051086,3660.030762 781.373779,3659.988770 
	C785.377991,3659.957275 787.051086,3657.144531 788.442993,3654.010742 
	C791.041565,3655.741943 793.470520,3658.524414 796.275330,3658.976807 
	C801.477112,3659.816162 806.898560,3659.337158 812.228394,3659.331543 
	C874.869934,3659.264648 937.511719,3659.247803 1000.153015,3659.083740 
	C1039.458008,3658.980713 1078.762329,3658.650391 1119.578003,3657.631836 
	C1148.220825,3656.960449 1175.352539,3657.121582 1202.484497,3657.184570 
	C1222.355835,3657.230713 1242.227417,3657.147949 1264.755859,3658.373535 
	C1270.280640,3665.033203 1275.478149,3666.368408 1280.862793,3666.791260 
	C1286.825317,3667.259521 1292.835205,3667.227051 1298.824707,3667.233154 
	C1491.268799,3667.434326 1683.712891,3667.756592 1876.156982,3667.760010 
	C2103.894775,3667.764160 2331.633301,3667.808594 2559.369629,3667.185303 
	C2653.884277,3666.926758 2748.420166,3669.316162 2842.927979,3665.439941 
	C2854.964600,3664.946289 2865.030273,3662.054932 2873.967285,3654.391113 
z"/>
<path fill="#020202" opacity="1.000000" stroke="none" 
	d="
M2368.705078,1558.938965 
	C2364.904297,1595.175903 2356.824463,1630.626099 2348.512451,1665.998535 
	C2346.268799,1675.546265 2342.181641,1684.718140 2338.375488,1693.826294 
	C2334.048584,1704.180298 2329.591553,1714.540771 2324.272217,1724.402954 
	C2318.020020,1735.994629 2310.780762,1747.053833 2302.213867,1760.028076 
	C2294.649414,1767.141113 2289.190674,1773.013794 2282.972656,1777.924805 
	C2250.133545,1803.860229 2217.130615,1829.588623 2184.104980,1855.286377 
	C2179.928711,1858.535889 2175.531494,1861.677979 2170.818604,1864.033081 
	C2132.347412,1883.258545 2091.381104,1890.161499 2048.910156,1885.785645 
	C2021.571777,1882.968872 1996.190186,1872.729614 1972.325806,1859.055664 
	C1966.566040,1855.755615 1961.213013,1851.576904 1955.167969,1848.975952 
	C1938.480835,1841.796509 1924.047241,1831.291870 1909.941162,1820.138428 
	C1901.082397,1813.133911 1892.285278,1805.974609 1882.897461,1799.731445 
	C1856.797607,1782.374634 1833.603149,1761.842896 1813.290161,1738.010498 
	C1785.468262,1706.240845 1765.598633,1669.670166 1749.529419,1630.956177 
	C1746.026367,1622.516357 1744.408203,1613.124634 1743.040039,1604.003662 
	C1740.197632,1585.054688 1738.104492,1565.993530 1735.823486,1543.682373 
	C1736.693237,1535.852783 1737.698853,1531.344482 1738.146606,1526.781250 
	C1739.823364,1509.695679 1742.053467,1492.619385 1742.683472,1475.488281 
	C1743.386597,1456.366333 1742.766968,1437.184326 1742.350220,1418.036621 
	C1742.098511,1406.472046 1737.593994,1395.995117 1731.333740,1386.591919 
	C1726.611206,1379.498535 1720.921021,1372.868652 1714.777222,1366.950562 
	C1707.998169,1360.420166 1708.295654,1349.486206 1699.759277,1344.348022 
	C1697.067749,1340.700073 1694.970215,1336.337646 1691.585205,1333.523682 
	C1673.648438,1318.611938 1664.652466,1298.790039 1661.416992,1276.548218 
	C1655.863281,1238.370361 1651.495850,1200.019775 1646.633911,1161.741333 
	C1646.550049,1161.080688 1646.473389,1160.415161 1646.456665,1159.750366 
	C1645.482300,1121.105591 1647.027344,1082.480469 1650.926025,1044.102661 
	C1652.719360,1026.449219 1658.577881,1009.041138 1663.965332,991.954590 
	C1676.038086,953.666077 1703.606812,930.154846 1741.364380,921.175476 
	C1769.754395,914.423828 1788.440063,899.174133 1802.548584,874.762329 
	C1810.127808,861.648315 1820.503052,850.038757 1830.383179,838.401001 
	C1838.489990,828.851807 1849.586914,823.921082 1862.168457,824.001221 
	C1872.770996,824.068665 1883.418945,824.891663 1893.951294,826.168213 
	C1909.142944,828.009399 1924.242188,830.604736 1939.391602,832.804077 
	C1962.724121,836.191223 1984.284668,830.432129 2004.858643,819.869385 
	C2009.591919,817.439209 2014.189941,814.738037 2018.794800,812.065918 
	C2027.148682,807.218445 2036.160156,805.894348 2045.698608,806.277039 
	C2066.983154,807.130920 2088.282959,807.602112 2109.569580,808.408569 
	C2117.713867,808.717224 2125.420654,807.449646 2132.867188,804.079773 
	C2137.095215,802.166443 2141.566162,800.795837 2145.898682,799.106079 
	C2152.990234,796.340027 2160.019775,795.769226 2167.274902,798.751770 
	C2180.168945,804.052551 2193.216309,808.982788 2206.086182,814.339844 
	C2214.666260,817.911316 2222.828125,822.589844 2231.572266,825.639954 
	C2245.387207,830.458740 2259.341797,834.499939 2271.677734,843.001465 
	C2276.369629,846.234985 2282.843506,846.994019 2288.592285,848.561646 
	C2306.549316,853.458252 2324.503662,858.377319 2342.548584,862.932739 
	C2351.734619,865.251709 2360.112305,868.863220 2367.684082,874.605652 
	C2371.373535,877.403687 2375.320801,880.352600 2379.632080,881.757507 
	C2402.540527,889.222717 2415.867188,908.247192 2431.455811,924.400696 
	C2438.148926,931.336609 2439.510742,940.874939 2440.052734,950.417969 
	C2440.769287,963.033203 2442.400879,975.601074 2442.958496,988.219360 
	C2443.446289,999.256897 2447.450439,1008.914185 2452.663818,1018.299927 
	C2454.926514,1022.373352 2457.249268,1026.414429 2459.446289,1030.523071 
	C2467.278809,1045.172729 2469.271484,1060.921265 2466.983887,1077.080811 
	C2464.887939,1091.889038 2466.698242,1106.047607 2470.122559,1120.493286 
	C2473.177246,1133.378784 2475.040527,1146.720215 2475.754150,1159.950928 
	C2477.225830,1187.238281 2477.156006,1214.555786 2473.145508,1241.730225 
	C2468.917480,1270.374390 2461.133057,1297.651245 2442.305664,1323.302856 
	C2436.711426,1330.375000 2432.241943,1335.349487 2428.747559,1340.933960 
	C2416.116211,1361.120605 2398.579102,1376.277222 2378.276855,1387.751831 
	C2367.247803,1393.984985 2364.201172,1401.806641 2364.371094,1413.450439 
	C2364.651123,1432.642700 2363.907715,1451.855347 2363.360596,1471.052734 
	C2362.775391,1491.597412 2363.392334,1511.983765 2369.602295,1531.814209 
	C2369.888184,1537.367310 2370.173828,1542.920410 2369.731934,1550.774048 
	C2368.904541,1555.029419 2368.804688,1556.984131 2368.705078,1558.938965 
M2335.730713,1258.538940 
	C2334.480225,1249.979004 2333.407715,1241.388428 2331.940430,1232.865845 
	C2329.232666,1217.137573 2327.484131,1201.111938 2323.154053,1185.828247 
	C2317.515137,1165.925415 2308.910400,1147.549438 2292.432861,1133.195068 
	C2277.786865,1120.436401 2260.847900,1113.499390 2242.840576,1108.679810 
	C2232.490234,1105.909546 2221.601074,1107.200195 2211.457764,1111.442383 
	C2204.035156,1114.546753 2199.654297,1119.989624 2199.813232,1128.335449 
	C2199.915039,1133.659912 2200.505371,1138.977295 2200.548096,1144.300415 
	C2200.605713,1151.479248 2197.462646,1157.348267 2191.582275,1161.238770 
	C2187.195068,1164.141602 2182.366455,1166.592896 2177.423584,1168.390137 
	C2169.932617,1171.113647 2162.235107,1173.342285 2154.509766,1175.331055 
	C2143.868896,1178.070312 2134.935303,1182.928833 2127.938721,1191.828003 
	C2124.352783,1196.389160 2119.345947,1200.346313 2114.185547,1203.067261 
	C2092.783936,1214.350830 2078.076904,1207.589478 2072.202393,1184.265869 
	C2071.390625,1181.043091 2071.197998,1177.663818 2070.377930,1174.443848 
	C2069.435547,1170.744263 2068.114014,1167.141357 2066.989258,1163.597778 
	C2059.469971,1165.378052 2053.131348,1167.504761 2046.632935,1168.262695 
	C2038.067871,1169.261597 2032.444824,1165.375366 2030.255493,1157.017700 
	C2028.934448,1151.974976 2028.718506,1146.520508 2028.809326,1141.265015 
	C2028.897827,1136.145020 2030.009399,1131.042725 2030.764648,1125.217407 
	C2024.221436,1123.241699 2018.449585,1121.829346 2012.920654,1119.766113 
	C1997.832642,1114.136230 1983.373901,1107.656738 1974.137085,1093.188110 
	C1971.741821,1089.436157 1967.764282,1086.348022 1963.899292,1083.941284 
	C1948.380249,1074.276978 1931.119751,1069.457886 1913.142090,1067.197388 
	C1901.945190,1065.789551 1891.893066,1069.014282 1883.914185,1077.081055 
	C1876.436890,1084.640869 1868.273438,1091.911011 1862.486206,1100.678101 
	C1847.457031,1123.445190 1833.380981,1146.852295 1819.299927,1170.230225 
	C1811.687256,1182.868652 1807.465820,1196.885376 1803.915405,1211.195801 
	C1798.468262,1233.151611 1793.916870,1255.529053 1786.052612,1276.634766 
	C1776.478638,1302.328613 1769.816772,1328.657227 1763.029053,1355.061890 
	C1761.559204,1360.779297 1759.802612,1366.992920 1756.271362,1371.475830 
	C1751.084961,1378.059692 1750.696289,1384.670044 1752.251831,1392.082642 
	C1757.035522,1414.879883 1761.687134,1437.706421 1766.682251,1460.457397 
	C1773.432373,1491.201660 1785.885498,1519.908691 1798.909424,1548.360107 
	C1805.001099,1561.667480 1810.693604,1575.326172 1818.395386,1587.686157 
	C1828.589966,1604.047119 1840.401611,1619.420776 1851.877197,1634.953369 
	C1856.609619,1641.358765 1862.120728,1647.219971 1867.596436,1653.028076 
	C1869.593506,1655.146362 1872.515259,1656.392700 1876.384277,1658.937134 
	C1876.718628,1652.222046 1876.909668,1647.622314 1877.183716,1643.027344 
	C1878.095215,1627.732910 1878.575684,1612.394409 1880.092651,1597.159546 
	C1881.688110,1581.136353 1885.145508,1565.132812 1895.018677,1552.161621 
	C1904.246094,1540.039062 1914.933594,1528.861694 1926.003906,1518.348145 
	C1941.532837,1503.599731 1960.523560,1496.331421 1982.087891,1495.477417 
	C2016.690918,1494.107178 2051.263916,1491.695557 2085.876221,1490.926758 
	C2115.170898,1490.276123 2144.507080,1491.128296 2173.818359,1491.678589 
	C2212.496338,1492.404541 2253.840576,1521.769531 2253.127930,1572.407104 
	C2252.996582,1581.735474 2253.070312,1591.068604 2253.184082,1600.397827 
	C2253.254150,1606.131592 2252.658936,1611.968994 2254.373291,1620.143799 
	C2258.287354,1616.439819 2260.749512,1614.618164 2262.580078,1612.298340 
	C2279.502930,1590.852295 2296.086182,1569.133911 2313.270020,1547.900757 
	C2320.593018,1538.852539 2325.562988,1528.987549 2328.120361,1517.781494 
	C2331.230225,1504.154053 2334.045654,1490.456299 2337.350586,1476.877197 
	C2342.590332,1455.349609 2344.194580,1433.527344 2343.795898,1411.444336 
	C2343.411133,1390.125366 2343.646729,1368.794312 2343.173096,1347.478149 
	C2342.922119,1336.194458 2341.734131,1324.931885 2340.983398,1313.658691 
	C2340.585205,1307.680298 2340.366211,1301.685547 2339.802979,1295.723145 
	C2338.741211,1284.481201 2337.488525,1273.257080 2335.730713,1258.538940 
M1948.954102,1567.412598 
	C1933.980591,1595.521484 1928.875732,1626.365112 1924.136719,1657.293335 
	C1922.550903,1667.643433 1921.306641,1678.045898 1919.924316,1688.290039 
	C1929.627686,1696.154907 1938.017456,1703.798462 1947.236572,1710.258301 
	C1968.717285,1725.309937 1992.795776,1731.605225 2018.932861,1728.965332 
	C2036.357910,1727.205566 2042.384644,1718.802734 2033.298950,1699.504028 
	C2031.332886,1695.328003 2028.248047,1691.691895 2025.869995,1687.693237 
	C2023.155884,1683.129517 2020.306763,1678.594971 2018.142090,1673.767334 
	C2014.564819,1665.788940 2018.032227,1659.153198 2026.774292,1657.544434 
	C2031.283569,1656.714722 2036.032227,1656.969116 2040.665649,1657.067749 
	C2067.936523,1657.648071 2095.239990,1658.883667 2121.627197,1649.602051 
	C2124.680664,1648.527954 2128.175781,1648.336304 2131.460938,1648.364014 
	C2141.537598,1648.448730 2149.028320,1657.687378 2146.180664,1667.415283 
	C2144.542480,1673.012695 2140.983887,1678.064697 2138.160889,1683.292725 
	C2136.090576,1687.126831 2133.811279,1690.847900 2131.506592,1694.823975 
	C2144.114258,1699.575195 2144.656738,1699.619995 2152.932129,1695.044922 
	C2165.141602,1688.295044 2177.372314,1681.579346 2189.463867,1674.622314 
	C2197.497314,1670.000244 2205.673096,1665.451904 2211.662109,1657.044067 
	C2212.831299,1634.673096 2208.780029,1612.613403 2201.807617,1590.919800 
	C2198.781006,1581.502808 2193.226807,1574.721436 2184.169678,1570.471191 
	C2177.571289,1567.374878 2170.712646,1564.266479 2165.087891,1559.765991 
	C2146.219482,1544.668457 2124.117432,1541.783691 2101.187256,1541.452026 
	C2093.213135,1541.336670 2085.232910,1541.658691 2077.258057,1541.562256 
	C2051.987305,1541.256592 2026.715210,1540.508911 2001.449219,1540.695068 
	C1994.338135,1540.747437 1986.706543,1542.234131 1980.266846,1545.160278 
	C1969.445557,1550.077759 1958.623657,1555.557983 1948.954102,1567.412598 
z"/>
<path fill="#2B7820" opacity="1.000000" stroke="none" 
	d="
M551.300293,3137.040283 
	C547.632935,3124.954834 544.565857,3112.646240 540.169373,3100.832275 
	C531.822205,3078.402100 522.760010,3056.237061 513.875671,3034.009521 
	C512.399963,3030.317139 510.734833,3026.572266 508.451508,3023.352295 
	C496.152710,3006.008545 483.631012,2988.823242 470.666321,2970.862793 
	C466.288818,2972.377686 462.684601,2973.590576 459.104095,2974.869385 
	C407.881439,2993.162598 362.127136,2982.966309 321.590118,2947.776367 
	C306.831451,2934.964844 296.482819,2918.545654 287.558655,2901.247314 
	C275.589478,2878.046387 267.579254,2853.363525 260.234619,2828.443604 
	C256.659729,2816.314209 253.243591,2804.122070 250.275269,2791.832764 
	C238.976685,2745.054932 219.481735,2701.128662 203.343414,2656.035400 
	C201.550873,2651.026367 199.367294,2646.100098 198.164886,2640.948730 
	C195.297729,2628.665039 202.428009,2619.595459 215.117081,2620.167480 
	C221.611237,2620.460205 228.298141,2622.187500 234.396759,2624.556396 
	C261.173157,2634.957520 286.860260,2647.582031 309.796722,2665.101807 
	C336.799103,2685.727539 363.755280,2706.425049 390.339630,2727.583740 
	C412.843872,2745.495361 432.632660,2766.167480 450.152130,2789.042969 
	C485.353333,2835.005127 501.086334,2886.580811 495.034302,2944.345215 
	C494.362335,2950.759277 494.503387,2956.019287 499.040161,2960.887207 
	C516.405762,2979.520752 530.274170,3000.600098 542.177185,3023.040039 
	C542.372192,3023.407715 543.256714,3023.409424 543.822510,3023.585693 
	C544.701172,3022.883301 546.363281,3022.151367 546.341248,3021.474609 
	C542.813049,2913.003174 539.163696,2804.535889 535.477661,2694.830322 
	C515.725037,2681.771729 505.401428,2661.114746 498.022156,2638.614502 
	C489.715607,2613.286865 482.547455,2587.706787 479.315399,2561.098145 
	C473.396088,2512.364746 480.540314,2465.568848 498.747894,2420.200684 
	C508.456329,2396.010254 520.757996,2373.156738 534.285278,2350.964844 
	C551.618958,2322.529053 569.378540,2294.353271 586.908691,2266.036621 
	C592.868347,2256.410156 598.821533,2246.775146 604.546936,2237.008789 
	C621.098389,2208.774658 635.863159,2179.743652 643.040894,2147.484619 
	C644.723877,2139.921143 647.317993,2133.282715 656.062256,2131.845215 
	C663.240784,2130.665283 668.876831,2134.506104 672.803650,2145.944580 
	C677.104980,2158.474365 680.967468,2171.409912 682.826599,2184.480713 
	C693.613708,2260.321777 705.009155,2336.135498 705.755066,2412.985596 
	C706.085327,2447.019287 704.709290,2480.930420 696.658020,2514.228027 
	C679.013489,2587.201172 641.029663,2646.167969 577.415344,2687.510742 
	C573.569824,2690.010254 569.851013,2692.704102 565.766479,2695.519043 
	C565.496094,2700.463867 565.075012,2705.062744 565.018494,2709.666260 
	C564.282227,2769.666992 566.140747,2829.551514 570.365601,2889.445801 
	C572.940857,2925.955322 572.090515,2962.705811 572.803345,2999.347412 
	C572.982910,3008.575195 571.564941,3018.032959 576.950439,3028.091309 
	C587.264038,3010.009033 596.344666,2992.383057 607.046143,2975.803467 
	C617.866333,2959.039795 630.291809,2943.312256 642.793396,2926.055176 
	C642.263245,2922.615479 641.457092,2918.112061 640.890015,2913.578857 
	C638.617371,2895.410156 641.298157,2877.760986 646.273376,2860.283447 
	C666.959595,2787.613770 710.237000,2733.006836 774.960266,2693.885498 
	C822.233765,2665.310791 868.649780,2635.091309 911.759338,2600.350098 
	C929.352356,2586.172119 945.990906,2570.651611 959.555908,2552.277832 
	C959.951416,2551.742188 960.264832,2551.145264 960.671570,2550.619385 
	C964.524414,2545.638916 968.965027,2541.543701 975.850647,2543.952637 
	C981.843079,2546.049072 982.892822,2551.664551 983.178040,2556.986816 
	C983.461060,2562.268799 983.247009,2567.688965 982.361694,2572.897461 
	C980.801636,2582.075195 978.939575,2591.237305 976.551086,2600.232666 
	C960.982971,2658.862793 942.629150,2716.463623 915.602356,2771.066895 
	C891.646240,2819.466553 861.135925,2862.529297 818.639404,2896.510742 
	C807.631348,2905.312744 795.839233,2912.683838 782.953796,2918.322510 
	C775.029419,2921.790039 767.056396,2925.147461 759.087158,2928.511963 
	C728.041321,2941.618164 696.309814,2950.706787 661.209900,2943.937012 
	C636.460876,2978.157227 612.342834,3012.164551 594.863403,3050.661377 
	C582.836609,3077.148926 578.474670,3105.304688 571.565552,3135.727051 
	C563.853210,3140.572021 557.436096,3141.160645 551.300293,3137.040283 
z"/>
<path fill="#020201" opacity="1.000000" stroke="none" 
	d="
M3575.665527,2059.237061 
	C3572.629883,2064.281738 3569.210449,2069.137451 3566.617188,2074.400391 
	C3538.964111,2130.528076 3510.920654,2186.474365 3484.223145,2243.055176 
	C3476.897705,2258.580078 3465.910645,2268.726562 3451.777100,2276.608154 
	C3426.435791,2290.740234 3400.117432,2295.140381 3370.983887,2289.150879 
	C3313.581055,2277.349365 3262.639160,2252.248291 3217.202148,2216.374023 
	C3188.994385,2194.103027 3164.008057,2167.939697 3141.885742,2139.364990 
	C3135.363770,2130.940918 3129.400146,2122.087158 3123.052002,2113.525391 
	C3092.839600,2072.779297 3078.142822,2026.402710 3072.646729,1976.512573 
	C3068.987549,1943.297974 3083.557617,1919.819458 3111.200195,1903.750610 
	C3127.261719,1894.413818 3144.481934,1887.095581 3160.876953,1878.302734 
	C3280.514160,1814.140259 3401.534668,1752.668823 3522.918213,1691.901123 
	C3527.011719,1689.851685 3531.218994,1688.029419 3534.453125,1686.528320 
	C3537.012939,1687.311279 3538.600586,1687.333862 3539.485596,1688.134033 
	C3587.394531,1731.448730 3635.244385,1774.828369 3684.150146,1819.153198 
	C3683.046631,1822.538330 3681.808838,1826.855347 3680.244873,1831.050537 
	C3666.962646,1866.682373 3648.105469,1899.677124 3631.573486,1933.772461 
	C3627.800781,1941.553833 3624.029785,1949.336060 3618.594727,1959.228516 
	C3605.218994,1986.456421 3593.462402,2011.553467 3581.822021,2036.704102 
	C3578.518311,2043.841797 3574.365479,2050.812988 3575.665527,2059.237061 
M3340.959717,2061.051025 
	C3308.090088,2029.195312 3269.023438,2006.318970 3229.207031,1984.694702 
	C3218.180664,1978.706177 3205.999756,1974.780273 3194.183350,1970.348877 
	C3190.717285,1969.049072 3186.682617,1969.266846 3182.744141,1968.768311 
	C3173.417480,1985.044312 3174.077881,2001.467407 3177.755615,2017.929810 
	C3181.869385,2036.343872 3190.150391,2053.166260 3200.941895,2068.460449 
	C3237.304443,2119.995605 3284.858643,2157.017578 3344.764160,2177.697998 
	C3358.723389,2182.517334 3373.075439,2185.521484 3387.773438,2185.651611 
	C3403.011230,2185.786865 3418.371094,2185.143066 3431.056641,2173.825928 
	C3425.298828,2160.578125 3417.763916,2148.761475 3408.699951,2138.158691 
	C3387.078125,2112.865967 3364.913330,2088.037598 3340.959717,2061.051025 
z"/>
<path fill="#944B01" opacity="1.000000" stroke="none" 
	d="
M789.477417,3652.527344 
	C787.051086,3657.144531 785.377991,3659.957275 781.373779,3659.988770 
	C776.051086,3660.030762 770.728210,3660.077881 765.405457,3660.078613 
	C666.240784,3660.093750 567.076111,3660.082520 467.911438,3660.141357 
	C457.320496,3660.147705 446.650787,3659.256348 436.270508,3662.714844 
	C434.741058,3663.224365 432.531555,3661.692627 429.229980,3660.578613 
	C429.454926,3652.169922 424.587677,3646.046387 421.970490,3639.420410 
	C386.428375,3549.440186 350.658142,3459.550537 315.120422,3369.568604 
	C303.436798,3339.985596 292.466797,3310.132812 286.266937,3277.644287 
	C483.948273,3276.053711 680.062012,3276.035889 876.175781,3276.019287 
	C879.499756,3276.019043 882.911072,3275.556152 886.126587,3276.149414 
	C890.612183,3276.977539 894.951355,3278.599365 899.353149,3279.881836 
	C893.913147,3313.454590 883.707703,3345.821777 873.893921,3378.240234 
	C846.343811,3469.248535 818.337952,3560.119141 789.477417,3652.527344 
z"/>
<path fill="#E4AC96" opacity="1.000000" stroke="none" 
	d="
M1812.809937,1739.632568 
	C1833.603149,1761.842896 1856.797607,1782.374634 1882.897461,1799.731445 
	C1892.285278,1805.974609 1901.082397,1813.133911 1909.941162,1820.138428 
	C1924.047241,1831.291870 1938.480835,1841.796509 1955.167969,1848.975952 
	C1961.213013,1851.576904 1966.566040,1855.755615 1972.325806,1859.055664 
	C1996.190186,1872.729614 2021.571777,1882.968872 2048.910156,1885.785645 
	C2091.381104,1890.161499 2132.347412,1883.258545 2170.818604,1864.033081 
	C2175.531494,1861.677979 2179.928711,1858.535889 2184.104980,1855.286377 
	C2217.130615,1829.588623 2250.133545,1803.860229 2282.972656,1777.924805 
	C2289.190674,1773.013794 2294.649414,1767.141113 2301.544434,1761.321289 
	C2305.962402,1777.730591 2307.720947,1795.057007 2313.110352,1811.169189 
	C2317.644043,1824.723755 2325.372314,1837.567383 2333.497314,1849.491699 
	C2352.507324,1877.390625 2374.057617,1903.364258 2398.105225,1927.115601 
	C2407.498047,1936.392700 2417.780273,1944.769287 2428.416992,1954.729492 
	C2309.913574,2053.109619 2190.650391,2150.316650 2070.666016,2248.111328 
	C2066.443359,2244.976318 2062.057373,2242.130615 2058.134766,2238.747559 
	C1976.361328,2168.223877 1894.658936,2097.617920 1812.895996,2027.082031 
	C1792.708008,2009.666138 1772.425049,1992.358398 1752.032959,1975.182373 
	C1746.990356,1970.935059 1741.350098,1967.397461 1734.762939,1963.079224 
	C1740.472412,1953.738403 1747.056030,1944.552734 1754.401733,1936.023193 
	C1774.343628,1912.867554 1786.517822,1885.640137 1795.717651,1857.019287 
	C1807.796753,1819.440063 1813.633301,1780.824219 1812.809937,1739.632568 
z"/>
<path fill="#020202" opacity="1.000000" stroke="none" 
	d="
M3680.103027,2004.141113 
	C3710.022705,2002.135010 3739.923096,2002.543213 3769.913574,2004.587280 
	C3789.047607,2019.061279 3807.941162,2033.727539 3827.239746,2047.839722 
	C3844.398682,2060.387451 3862.700684,2071.452637 3879.279785,2084.697510 
	C3920.322510,2117.486572 3961.969482,2149.702393 4000.975830,2184.812744 
	C4054.420410,2232.920166 4109.461914,2279.052490 4164.767090,2324.927246 
	C4241.062012,2388.212646 4317.382324,2451.468750 4394.615234,2516.921387 
	C4393.711426,2523.347412 4392.191406,2527.754883 4390.009277,2531.805664 
	C4370.154297,2568.663330 4350.199219,2605.467773 4330.231934,2642.265137 
	C4325.795410,2650.440918 4321.059570,2658.456543 4316.729004,2666.686035 
	C4314.639648,2670.655762 4311.544922,2672.532715 4307.292969,2672.959229 
	C4264.511719,2640.225586 4221.425293,2607.881592 4179.004883,2574.686523 
	C4042.782227,2468.089355 3906.686523,2361.329102 3770.828369,2254.268066 
	C3741.589600,2231.226562 3713.596436,2206.607666 3684.927734,2182.837646 
	C3678.138184,2177.208496 3673.026611,2170.451172 3668.812500,2162.775391 
	C3656.978027,2141.219971 3644.946045,2119.772949 3632.836914,2095.434082 
	C3630.881836,2084.472412 3635.909424,2078.835205 3639.649902,2072.582275 
	C3653.253662,2049.840088 3666.636475,2026.965576 3680.103027,2004.141113 
z"/>
<path fill="#020101" opacity="1.000000" stroke="none" 
	d="
M4090.649658,3653.842773 
	C4009.639648,3655.646484 3928.437500,3655.669189 3847.235352,3655.786133 
	C3723.433838,3655.964111 3599.632324,3656.179932 3475.831055,3656.508301 
	C3469.929443,3656.523926 3464.043945,3658.054199 3458.125244,3658.326904 
	C3455.693604,3658.438721 3453.194336,3657.087158 3449.315430,3655.904785 
	C3448.021973,3653.416016 3448.483398,3651.374268 3448.204834,3649.438721 
	C3442.189941,3607.626221 3443.818604,3565.788330 3447.567627,3523.927246 
	C3449.171387,3506.020264 3450.385010,3488.077393 3452.125732,3470.184814 
	C3452.821289,3463.035156 3454.460938,3455.977295 3455.815186,3448.032227 
	C3471.307861,3446.736328 3485.799805,3445.351562 3500.318115,3444.341064 
	C3553.508057,3440.638428 3606.771973,3440.224121 3660.076172,3439.850342 
	C3725.344482,3439.392334 3790.600342,3437.161621 3859.140381,3436.373047 
	C3869.341553,3440.408936 3876.631104,3439.508301 3883.867676,3438.791504 
	C3913.424561,3435.864502 3942.876465,3431.698242 3972.653076,3431.389648 
	C3975.957520,3431.355469 3979.546631,3431.863037 3982.488037,3430.752930 
	C3985.960693,3429.442383 3988.872314,3426.645508 3992.027100,3424.493164 
	C4011.931152,3424.006592 4031.839844,3423.655273 4051.736816,3422.965332 
	C4059.482910,3422.697021 4066.156494,3424.377197 4072.135254,3431.643066 
	C4076.347656,3464.002930 4080.184814,3497.532227 4079.906982,3531.465820 
	C4079.776855,3547.371582 4080.585205,3563.296387 4081.360107,3579.193848 
	C4081.876709,3589.783936 4082.716553,3600.388428 4084.077148,3610.900146 
	C4085.860596,3624.679199 4088.300049,3638.373535 4090.649658,3653.842773 
z"/>
<path fill="#030202" opacity="1.000000" stroke="none" 
	d="
M3883.944580,3364.197266 
	C3845.699951,3330.143066 3807.673828,3295.859375 3771.659912,3258.078613 
	C3775.149902,3253.638184 3778.078613,3249.342773 3781.564941,3245.561523 
	C3831.640137,3191.246338 3881.627930,3136.849121 3931.958252,3082.771240 
	C4023.101318,2984.841309 4114.297363,2886.959473 4205.812012,2789.376709 
	C4239.950684,2752.974365 4275.042969,2717.466064 4312.235352,2680.840820 
	C4349.212402,2689.843750 4383.658691,2699.538574 4418.087402,2709.297607 
	C4421.272461,2710.200439 4424.670898,2711.014160 4427.354004,2712.796631 
	C4429.310059,2714.096191 4430.251953,2716.923096 4431.645996,2719.069092 
	C4395.150391,2763.163086 4359.437012,2807.933350 4322.013672,2851.225098 
	C4208.374512,2982.682617 4094.145020,3113.630127 3979.881348,3244.546143 
	C3971.724854,3253.891602 3966.638184,3263.826904 3963.704590,3275.769287 
	C3957.363037,3301.584473 3950.008545,3327.150879 3941.600342,3353.727539 
	C3929.850830,3351.945312 3919.710205,3351.809326 3909.558350,3355.563232 
	C3901.111328,3358.686768 3892.489258,3361.337158 3883.944580,3364.197266 
z"/>
<path fill="#7F440C" opacity="1.000000" stroke="none" 
	d="
M901.088379,3279.195557 
	C894.951355,3278.599365 890.612183,3276.977539 886.126587,3276.149414 
	C882.911072,3275.556152 879.499756,3276.019043 876.175781,3276.019287 
	C680.062012,3276.035889 483.948273,3276.053711 285.980804,3276.150635 
	C259.587463,3275.088623 234.927002,3276.125000 209.441299,3272.678467 
	C208.566101,3268.005615 207.089005,3263.651855 207.039795,3259.281982 
	C206.725250,3231.349121 206.717270,3203.412598 206.625168,3175.477295 
	C206.596802,3166.875244 206.620773,3158.272949 206.620773,3151.583496 
	C211.127426,3144.429199 216.613937,3143.927734 221.818115,3143.496826 
	C236.404144,3142.289062 251.009842,3140.753662 265.624268,3140.554199 
	C322.198822,3139.781250 378.780029,3139.502686 435.358307,3138.989990 
	C472.629425,3138.652100 509.899780,3138.228516 549.235352,3137.441895 
	C557.436096,3141.160645 563.853210,3140.572021 571.281677,3137.289307 
	C580.102600,3136.995361 588.019897,3138.110352 595.937073,3138.109131 
	C687.189941,3138.093506 778.442871,3137.842773 869.695740,3137.808838 
	C897.666199,3137.798340 925.637207,3138.229004 953.606873,3138.544922 
	C956.817383,3138.581055 960.021545,3139.181641 962.913086,3139.487061 
	C968.080322,3162.650635 966.986633,3203.819092 959.476868,3274.451660 
	C956.134888,3275.211182 952.466187,3276.606689 948.736511,3276.794922 
	C933.442261,3277.566406 918.129517,3277.969971 901.088379,3279.195557 
z"/>
<path fill="#575757" opacity="1.000000" stroke="none" 
	d="
M4432.809570,2718.253418 
	C4430.251953,2716.923096 4429.310059,2714.096191 4427.354004,2712.796631 
	C4424.670898,2711.014160 4421.272461,2710.200439 4418.087402,2709.297607 
	C4383.658691,2699.538574 4349.212402,2689.843750 4313.197266,2679.936768 
	C4310.284668,2678.166016 4308.945801,2676.589844 4307.450195,2673.986572 
	C4311.544922,2672.532715 4314.639648,2670.655762 4316.729004,2666.686035 
	C4321.059570,2658.456543 4325.795410,2650.440918 4330.231934,2642.265137 
	C4350.199219,2605.467773 4370.154297,2568.663330 4390.009277,2531.805664 
	C4392.191406,2527.754883 4393.711426,2523.347412 4395.712891,2517.686279 
	C4401.450195,2508.270752 4407.013184,2500.274658 4412.698242,2492.102539 
	C4418.380371,2491.400635 4420.470703,2496.232910 4423.167969,2499.600098 
	C4448.956543,2531.796875 4474.721191,2564.015137 4500.242676,2596.423584 
	C4518.765625,2619.946045 4536.937500,2643.745361 4555.188965,2667.480469 
	C4557.086914,2669.947998 4558.464355,2672.815918 4560.674805,2676.478760 
	C4547.267578,2683.560791 4534.750977,2688.859619 4521.162598,2692.074463 
	C4495.958008,2698.037109 4470.924316,2704.720215 4445.774414,2710.921143 
	C4441.146484,2712.062500 4436.810059,2713.267822 4432.809570,2718.253418 
z"/>
<path fill="#E4AC96" opacity="1.000000" stroke="none" 
	d="
M1698.317627,1344.028076 
	C1708.295654,1349.486206 1707.998169,1360.420166 1714.777222,1366.950562 
	C1720.921021,1372.868652 1726.611206,1379.498535 1731.333740,1386.591919 
	C1737.593994,1395.995117 1742.098511,1406.472046 1742.350220,1418.036621 
	C1742.766968,1437.184326 1743.386597,1456.366333 1742.683472,1475.488281 
	C1742.053467,1492.619385 1739.823364,1509.695679 1738.146606,1526.781250 
	C1737.698853,1531.344482 1736.693237,1535.852783 1735.510742,1541.946411 
	C1729.416382,1545.395996 1723.815674,1547.497681 1718.082275,1549.135010 
	C1701.493408,1553.872681 1688.063110,1548.874756 1677.498413,1535.511230 
	C1676.673462,1534.467773 1675.724243,1533.473877 1675.127563,1532.306274 
	C1662.083862,1506.782227 1649.502075,1480.934692 1648.738647,1451.583740 
	C1648.117554,1427.708618 1646.660278,1403.659180 1652.030273,1380.045654 
	C1653.633789,1372.994263 1655.437012,1365.780396 1658.562012,1359.325073 
	C1665.609741,1344.767090 1674.230957,1340.858154 1690.925415,1343.131836 
	C1692.898560,1343.400513 1694.891968,1343.519531 1698.317627,1344.028076 
z"/>
<path fill="#E4AC96" opacity="1.000000" stroke="none" 
	d="
M2371.168701,1532.253418 
	C2363.392334,1511.983765 2362.775391,1491.597412 2363.360596,1471.052734 
	C2363.907715,1451.855347 2364.651123,1432.642700 2364.371094,1413.450439 
	C2364.201172,1401.806641 2367.247803,1393.984985 2378.276855,1387.751831 
	C2398.579102,1376.277222 2416.116211,1361.120605 2428.747559,1340.933960 
	C2432.241943,1335.349487 2436.711426,1330.375000 2441.944336,1324.696045 
	C2451.004639,1327.205688 2453.118164,1334.512695 2455.733154,1341.233276 
	C2463.618652,1361.500610 2466.093750,1382.921387 2463.052979,1404.021606 
	C2458.327393,1436.818237 2451.672852,1469.242432 2438.567139,1500.225586 
	C2430.990723,1518.136841 2418.006104,1529.162476 2402.372803,1538.357178 
	C2396.325928,1541.913696 2389.453125,1541.273193 2383.091553,1538.554443 
	C2379.466553,1537.005005 2376.176270,1534.672485 2371.168701,1532.253418 
z"/>
<path fill="#575757" opacity="1.000000" stroke="none" 
	d="
M3883.602539,3365.503418 
	C3892.489258,3361.337158 3901.111328,3358.686768 3909.558350,3355.563232 
	C3919.710205,3351.809326 3929.850830,3351.945312 3941.472900,3355.325195 
	C3970.883789,3364.047852 3985.961914,3383.049316 3989.677002,3411.602051 
	C3990.105225,3414.894775 3990.278076,3418.220459 3991.298096,3423.012207 
	C3988.872314,3426.645508 3985.960693,3429.442383 3982.488037,3430.752930 
	C3979.546631,3431.863037 3975.957520,3431.355469 3972.653076,3431.389648 
	C3942.876465,3431.698242 3913.424561,3435.864502 3883.867676,3438.791504 
	C3876.631104,3439.508301 3869.341553,3440.408936 3860.985840,3436.291016 
	C3854.899902,3408.294189 3863.425537,3385.601074 3883.602539,3365.503418 
z"/>
<path fill="#575757" opacity="1.000000" stroke="none" 
	d="
M3679.485596,2002.929688 
	C3666.636475,2026.965576 3653.253662,2049.840088 3639.649902,2072.582275 
	C3635.909424,2078.835205 3630.881836,2084.472412 3632.446289,2094.070801 
	C3628.232666,2088.302734 3621.904785,2084.165039 3614.541748,2080.609863 
	C3602.074219,2074.589844 3590.084961,2067.579834 3576.780029,2060.111572 
	C3574.365479,2050.812988 3578.518311,2043.841797 3581.822021,2036.704102 
	C3593.462402,2011.553467 3605.218994,1986.456421 3618.057861,1960.565063 
	C3620.736816,1962.484985 3621.622803,1966.223267 3623.947754,1967.706543 
	C3642.098633,1979.288086 3660.526123,1990.436279 3679.485596,2002.929688 
z"/>
<path fill="#E4AC96" opacity="1.000000" stroke="none" 
	d="
M2369.603516,1558.344482 
	C2368.804688,1556.984131 2368.904541,1555.029419 2369.790527,1552.443970 
	C2370.552002,1553.792236 2370.526855,1555.770996 2369.603516,1558.344482 
z"/>
<path fill="#C8C9C9" opacity="1.000000" stroke="none" 
	d="
M1279.992920,3592.247803 
	C1279.538330,3564.265625 1278.715210,3536.283936 1278.694336,3508.301514 
	C1278.614624,3401.646240 1278.871338,3294.990967 1278.858887,3188.335693 
	C1278.836060,2993.688965 1278.657349,2799.042480 1278.686401,2604.395752 
	C1278.690796,2575.073242 1279.439819,2545.750244 1279.918823,2516.428711 
	C1279.971436,2513.203125 1280.517456,2509.985352 1280.938477,2505.709717 
	C1285.921631,2505.129150 1290.364868,2504.209229 1294.818970,2504.154541 
	C1338.809326,2503.612549 1382.809448,2503.604248 1426.791748,2502.708740 
	C1655.400391,2498.054443 1884.023193,2500.755371 2112.638916,2501.345459 
	C2339.256836,2501.930664 2565.872559,2503.327637 2792.489258,2504.352051 
	C2808.435547,2504.424316 2824.382324,2504.361328 2841.238281,2504.361328 
	C2842.196777,2508.989990 2843.626709,2512.686523 2843.633545,2516.385498 
	C2844.282715,2861.663330 2844.836670,3206.941162 2845.308350,3552.219238 
	C2845.322754,3562.860840 2844.410156,3573.503662 2841.970215,3586.079102 
	C2748.102295,3588.063965 2656.193359,3588.103516 2564.284668,3588.193115 
	C2557.635254,3588.199707 2550.586670,3587.229492 2544.426270,3589.067383 
	C2533.894775,3592.209961 2523.376465,3591.833008 2512.772705,3591.835938 
	C2302.314209,3591.892090 2091.855713,3591.875244 1881.397095,3591.940674 
	C1680.929077,3592.002930 1480.460938,3592.142334 1279.992920,3592.247803 
M1959.839722,3251.655029 
	C1967.826904,3244.727539 1975.814087,3237.800049 1983.955444,3230.738770 
	C1994.799438,3233.685059 2004.955933,3236.444336 2014.405884,3239.011719 
	C2022.086670,3248.867676 2020.221680,3261.937012 2029.215454,3271.213867 
	C2039.230713,3270.995117 2049.757324,3272.885742 2060.339600,3268.631592 
	C2063.601074,3258.250244 2066.727295,3248.300293 2069.730957,3238.739990 
	C2080.712646,3235.913818 2090.304443,3233.445557 2100.406982,3230.845459 
	C2107.815674,3237.759766 2115.039795,3244.501709 2122.483643,3251.448486 
	C2133.509277,3247.436279 2142.996338,3241.716797 2152.092529,3233.903076 
	C2149.942627,3223.962402 2147.861328,3214.337158 2145.680908,3204.254395 
	C2152.900879,3197.388428 2160.043701,3190.596191 2168.041260,3182.991211 
	C2177.522705,3183.752441 2188.064941,3184.598877 2199.747070,3185.536621 
	C2204.162354,3176.121582 2212.204102,3168.687988 2213.828369,3157.870361 
	C2206.659424,3150.013672 2200.020508,3142.737793 2193.611084,3135.713379 
	C2196.616699,3124.843994 2199.251953,3115.314209 2201.883057,3105.799316 
	C2212.105957,3101.572754 2221.860596,3097.540039 2232.390625,3093.186523 
	C2232.390625,3083.757080 2232.390625,3074.620117 2232.390625,3064.468994 
	C2222.117188,3060.575684 2211.693848,3056.625488 2201.348389,3052.705078 
	C2198.719238,3041.775146 2196.262939,3031.563965 2193.832520,3021.459229 
	C2201.885254,3013.139160 2209.215820,3005.565430 2216.707520,2997.824951 
	C2211.212891,2986.540039 2207.635986,2975.024414 2197.562500,2967.813232 
	C2187.338867,2970.812988 2177.848389,2973.597656 2168.060547,2976.469482 
	C2159.751953,2968.047119 2151.920898,2960.108887 2144.569824,2952.657227 
	C2145.428467,2940.223145 2152.052490,2930.138428 2151.625000,2917.961182 
	C2143.474365,2912.386230 2135.981689,2906.034424 2125.775879,2903.709229 
	C2117.159668,2911.681396 2108.925293,2919.300293 2100.596436,2927.006836 
	C2089.505371,2923.825684 2079.435059,2920.937256 2069.717529,2918.150146 
	C2065.859619,2905.794189 2062.336426,2894.510986 2058.840820,2883.315918 
	C2047.059692,2882.614258 2036.565308,2880.792236 2025.948730,2884.833252 
	C2023.116333,2896.040771 2020.371338,2906.902588 2017.551270,2918.061523 
	C2006.734985,2920.742920 1996.578491,2923.260742 1986.847534,2925.673096 
	C1975.985840,2917.307129 1969.062988,2906.238525 1958.029663,2899.385742 
	C1948.836060,2904.002441 1939.193970,2906.633301 1931.338623,2913.785156 
	C1934.026001,2926.535645 1936.602295,2938.759277 1938.925659,2949.782959 
	C1930.947998,2957.693848 1923.917114,2964.666260 1916.223633,2972.295410 
	C1904.554565,2972.632812 1893.584351,2963.635010 1880.821045,2964.833496 
	C1874.397095,2974.611084 1867.296631,2983.313232 1863.434326,2994.265137 
	C1873.077393,3003.737793 1882.019653,3012.522217 1890.640869,3020.991211 
	C1887.509155,3033.074219 1884.692139,3043.943604 1881.619751,3055.797852 
	C1869.839355,3059.178223 1857.857300,3062.616211 1845.709595,3066.102051 
	C1843.361572,3074.717285 1844.020386,3082.537354 1845.233521,3091.672363 
	C1857.556152,3095.475586 1870.040039,3099.328613 1881.689819,3102.924316 
	C1884.981567,3115.423096 1887.849365,3126.311523 1890.623413,3136.844727 
	C1885.085938,3148.839111 1872.184692,3154.599365 1866.874390,3167.340088 
	C1872.058594,3174.905762 1874.902466,3183.936768 1882.537598,3190.023682 
	C1894.666870,3187.312500 1906.152954,3184.745117 1914.735840,3182.826660 
	C1924.559204,3191.966309 1932.293579,3199.162354 1940.425781,3206.728760 
	C1938.381226,3217.569824 1936.312378,3228.540039 1934.132202,3240.100586 
	C1941.849609,3245.467773 1948.579956,3250.719238 1959.839722,3251.655029 
z"/>
<path fill="#A8A7A6" opacity="1.000000" stroke="none" 
	d="
M1279.302490,3593.446777 
	C1480.460938,3592.142334 1680.929077,3592.002930 1881.397095,3591.940674 
	C2091.855713,3591.875244 2302.314209,3591.892090 2512.772705,3591.835938 
	C2523.376465,3591.833008 2533.894775,3592.209961 2544.426270,3589.067383 
	C2550.586670,3587.229492 2557.635254,3588.199707 2564.284668,3588.193115 
	C2656.193359,3588.103516 2748.102295,3588.063965 2841.861572,3587.946289 
	C2854.113770,3592.835449 2861.088623,3601.720459 2868.471680,3609.993164 
	C2874.341064,3616.569824 2877.068359,3624.783203 2876.906250,3633.614014 
	C2876.798584,3639.493164 2875.843018,3645.356689 2874.617188,3652.809082 
	C2865.030273,3662.054932 2854.964600,3664.946289 2842.927979,3665.439941 
	C2748.420166,3669.316162 2653.884277,3666.926758 2559.369629,3667.185303 
	C2331.633301,3667.808594 2103.894775,3667.764160 1876.156982,3667.760010 
	C1683.712891,3667.756592 1491.268799,3667.434326 1298.824707,3667.233154 
	C1292.835205,3667.227051 1286.825317,3667.259521 1280.862793,3666.791260 
	C1275.478149,3666.368408 1270.280640,3665.033203 1266.752686,3658.562012 
	C1265.208496,3649.605469 1264.141968,3641.726807 1263.479126,3633.813965 
	C1262.184570,3618.358887 1266.485229,3604.964844 1279.302490,3593.446777 
z"/>
<path fill="#E2AA93" opacity="1.000000" stroke="none" 
	d="
M2336.022949,1260.282227 
	C2337.488525,1273.257080 2338.741211,1284.481201 2339.802979,1295.723145 
	C2340.366211,1301.685547 2340.585205,1307.680298 2340.983398,1313.658691 
	C2341.734131,1324.931885 2342.922119,1336.194458 2343.173096,1347.478149 
	C2343.646729,1368.794312 2343.411133,1390.125366 2343.795898,1411.444336 
	C2344.194580,1433.527344 2342.590332,1455.349609 2337.350586,1476.877197 
	C2334.045654,1490.456299 2331.230225,1504.154053 2328.120361,1517.781494 
	C2325.562988,1528.987549 2320.593018,1538.852539 2313.270020,1547.900757 
	C2296.086182,1569.133911 2279.502930,1590.852295 2262.580078,1612.298340 
	C2260.749512,1614.618164 2258.287354,1616.439819 2254.373291,1620.143799 
	C2252.658936,1611.968994 2253.254150,1606.131592 2253.184082,1600.397827 
	C2253.070312,1591.068604 2252.996582,1581.735474 2253.127930,1572.407104 
	C2253.840576,1521.769531 2212.496338,1492.404541 2173.818359,1491.678589 
	C2144.507080,1491.128296 2115.170898,1490.276123 2085.876221,1490.926758 
	C2051.263916,1491.695557 2016.690918,1494.107178 1982.087891,1495.477417 
	C1960.523560,1496.331421 1941.532837,1503.599731 1926.003906,1518.348145 
	C1914.933594,1528.861694 1904.246094,1540.039062 1895.018677,1552.161621 
	C1885.145508,1565.132812 1881.688110,1581.136353 1880.092651,1597.159546 
	C1878.575684,1612.394409 1878.095215,1627.732910 1877.183716,1643.027344 
	C1876.909668,1647.622314 1876.718628,1652.222046 1876.384277,1658.937134 
	C1872.515259,1656.392700 1869.593506,1655.146362 1867.596436,1653.028076 
	C1862.120728,1647.219971 1856.609619,1641.358765 1851.877197,1634.953369 
	C1840.401611,1619.420776 1828.589966,1604.047119 1818.395386,1587.686157 
	C1810.693604,1575.326172 1805.001099,1561.667480 1798.909424,1548.360107 
	C1785.885498,1519.908691 1773.432373,1491.201660 1766.682251,1460.457397 
	C1761.687134,1437.706421 1757.035522,1414.879883 1752.251831,1392.082642 
	C1750.696289,1384.670044 1751.084961,1378.059692 1756.271362,1371.475830 
	C1759.802612,1366.992920 1761.559204,1360.779297 1763.029053,1355.061890 
	C1769.816772,1328.657227 1776.478638,1302.328613 1786.052612,1276.634766 
	C1793.916870,1255.529053 1798.468262,1233.151611 1803.915405,1211.195801 
	C1807.465820,1196.885376 1811.687256,1182.868652 1819.299927,1170.230225 
	C1833.380981,1146.852295 1847.457031,1123.445190 1862.486206,1100.678101 
	C1868.273438,1091.911011 1876.436890,1084.640869 1883.914185,1077.081055 
	C1891.893066,1069.014282 1901.945190,1065.789551 1913.142090,1067.197388 
	C1931.119751,1069.457886 1948.380249,1074.276978 1963.899292,1083.941284 
	C1967.764282,1086.348022 1971.741821,1089.436157 1974.137085,1093.188110 
	C1983.373901,1107.656738 1997.832642,1114.136230 2012.920654,1119.766113 
	C2018.449585,1121.829346 2024.221436,1123.241699 2030.764648,1125.217407 
	C2030.009399,1131.042725 2028.897827,1136.145020 2028.809326,1141.265015 
	C2028.718506,1146.520508 2028.934448,1151.974976 2030.255493,1157.017700 
	C2032.444824,1165.375366 2038.067871,1169.261597 2046.632935,1168.262695 
	C2053.131348,1167.504761 2059.469971,1165.378052 2066.989258,1163.597778 
	C2068.114014,1167.141357 2069.435547,1170.744263 2070.377930,1174.443848 
	C2071.197998,1177.663818 2071.390625,1181.043091 2072.202393,1184.265869 
	C2078.076904,1207.589478 2092.783936,1214.350830 2114.185547,1203.067261 
	C2119.345947,1200.346313 2124.352783,1196.389160 2127.938721,1191.828003 
	C2134.935303,1182.928833 2143.868896,1178.070312 2154.509766,1175.331055 
	C2162.235107,1173.342285 2169.932617,1171.113647 2177.423584,1168.390137 
	C2182.366455,1166.592896 2187.195068,1164.141602 2191.582275,1161.238770 
	C2197.462646,1157.348267 2200.605713,1151.479248 2200.548096,1144.300415 
	C2200.505371,1138.977295 2199.915039,1133.659912 2199.813232,1128.335449 
	C2199.654297,1119.989624 2204.035156,1114.546753 2211.457764,1111.442383 
	C2221.601074,1107.200195 2232.490234,1105.909546 2242.840576,1108.679810 
	C2260.847900,1113.499390 2277.786865,1120.436401 2292.432861,1133.195068 
	C2308.910400,1147.549438 2317.515137,1165.925415 2323.154053,1185.828247 
	C2327.484131,1201.111938 2329.232666,1217.137573 2331.940430,1232.865845 
	C2333.407715,1241.388428 2334.480225,1249.979004 2336.022949,1260.282227 
M1947.143921,1239.358887 
	C1936.541138,1238.600342 1925.911499,1238.105347 1915.341431,1237.026367 
	C1895.586182,1235.009888 1877.115112,1239.111206 1859.376099,1247.637329 
	C1852.209229,1251.081909 1844.830811,1254.092529 1837.505493,1257.199341 
	C1828.593628,1260.979248 1821.827271,1267.275513 1817.057373,1275.489868 
	C1807.070068,1292.689453 1817.449341,1311.528687 1837.268433,1312.650024 
	C1849.386353,1313.335571 1861.050293,1310.785645 1872.655640,1307.808105 
	C1897.144287,1301.524414 1921.925049,1297.338745 1947.210571,1295.664917 
	C1959.070190,1294.879883 1970.756958,1291.759399 1982.588623,1290.201172 
	C1995.043335,1288.560791 2002.654175,1280.597900 2009.022461,1270.954346 
	C2013.901245,1263.566406 2012.421387,1254.753906 2004.968750,1249.979614 
	C2000.639038,1247.205933 1995.397095,1245.178711 1990.319702,1244.382080 
	C1977.215942,1242.326416 1963.975586,1241.141602 1947.143921,1239.358887 
M2258.099609,1238.719727 
	C2250.252686,1237.428223 2242.355713,1234.793945 2234.567383,1235.082520 
	C2203.994141,1236.215332 2173.447266,1238.149536 2142.913330,1240.134033 
	C2139.133301,1240.379883 2135.300049,1242.352051 2131.830322,1244.170532 
	C2127.550049,1246.413818 2125.977295,1252.238159 2128.572998,1256.284912 
	C2130.695068,1259.593384 2133.211670,1262.894531 2136.255371,1265.316895 
	C2143.521973,1271.100464 2151.402588,1276.112427 2158.676025,1281.888428 
	C2173.501465,1293.662109 2189.487549,1297.175049 2208.784668,1295.541992 
	C2233.077148,1293.486084 2257.985596,1293.364868 2281.659668,1302.344727 
	C2292.715576,1306.538330 2302.659180,1301.941528 2312.092285,1297.063354 
	C2318.483154,1293.758301 2320.188965,1286.555298 2317.583496,1279.783691 
	C2311.989746,1265.246460 2300.970703,1255.752197 2287.515625,1249.203247 
	C2279.206543,1245.158936 2270.099854,1242.754150 2258.099609,1238.719727 
z"/>
<path fill="#E2AA93" opacity="1.000000" stroke="none" 
	d="
M1949.824829,1566.222656 
	C1958.623657,1555.557983 1969.445557,1550.077759 1980.266846,1545.160278 
	C1986.706543,1542.234131 1994.338135,1540.747437 2001.449219,1540.695068 
	C2026.715210,1540.508911 2051.987305,1541.256592 2077.258057,1541.562256 
	C2085.232910,1541.658691 2093.213135,1541.336670 2101.187256,1541.452026 
	C2124.117432,1541.783691 2146.219482,1544.668457 2165.087891,1559.765991 
	C2170.712646,1564.266479 2177.571289,1567.374878 2184.169678,1570.471191 
	C2193.226807,1574.721436 2198.781006,1581.502808 2201.807617,1590.919800 
	C2208.780029,1612.613403 2212.831299,1634.673096 2211.662109,1657.044067 
	C2205.673096,1665.451904 2197.497314,1670.000244 2189.463867,1674.622314 
	C2177.372314,1681.579346 2165.141602,1688.295044 2152.932129,1695.044922 
	C2144.656738,1699.619995 2144.114258,1699.575195 2131.506592,1694.823975 
	C2133.811279,1690.847900 2136.090576,1687.126831 2138.160889,1683.292725 
	C2140.983887,1678.064697 2144.542480,1673.012695 2146.180664,1667.415283 
	C2149.028320,1657.687378 2141.537598,1648.448730 2131.460938,1648.364014 
	C2128.175781,1648.336304 2124.680664,1648.527954 2121.627197,1649.602051 
	C2095.239990,1658.883667 2067.936523,1657.648071 2040.665649,1657.067749 
	C2036.032227,1656.969116 2031.283569,1656.714722 2026.774292,1657.544434 
	C2018.032227,1659.153198 2014.564819,1665.788940 2018.142090,1673.767334 
	C2020.306763,1678.594971 2023.155884,1683.129517 2025.869995,1687.693237 
	C2028.248047,1691.691895 2031.332886,1695.328003 2033.298950,1699.504028 
	C2042.384644,1718.802734 2036.357910,1727.205566 2018.932861,1728.965332 
	C1992.795776,1731.605225 1968.717285,1725.309937 1947.236572,1710.258301 
	C1938.017456,1703.798462 1929.627686,1696.154907 1919.924316,1688.290039 
	C1921.306641,1678.045898 1922.550903,1667.643433 1924.136719,1657.293335 
	C1928.875732,1626.365112 1933.980591,1595.521484 1949.824829,1566.222656 
z"/>
<path fill="#F0EF44" opacity="1.000000" stroke="none" 
	d="
M3341.963867,2062.036377 
	C3364.913330,2088.037598 3387.078125,2112.865967 3408.699951,2138.158691 
	C3417.763916,2148.761475 3425.298828,2160.578125 3431.056641,2173.825928 
	C3418.371094,2185.143066 3403.011230,2185.786865 3387.773438,2185.651611 
	C3373.075439,2185.521484 3358.723389,2182.517334 3344.764160,2177.697998 
	C3284.858643,2157.017578 3237.304443,2119.995605 3200.941895,2068.460449 
	C3190.150391,2053.166260 3181.869385,2036.343872 3177.755615,2017.929810 
	C3174.077881,2001.467407 3173.417480,1985.044312 3182.744141,1968.768311 
	C3186.682617,1969.266846 3190.717285,1969.049072 3194.183350,1970.348877 
	C3205.999756,1974.780273 3218.180664,1978.706177 3229.207031,1984.694702 
	C3269.023438,2006.318970 3308.090088,2029.195312 3341.963867,2062.036377 
z"/>
<path fill="#121C22" opacity="1.000000" stroke="none" 
	d="
M1958.600464,3252.040527 
	C1948.579956,3250.719238 1941.849609,3245.467773 1934.132202,3240.100586 
	C1936.312378,3228.540039 1938.381226,3217.569824 1940.425781,3206.728760 
	C1932.293579,3199.162354 1924.559204,3191.966309 1914.735840,3182.826660 
	C1906.152954,3184.745117 1894.666870,3187.312500 1882.537598,3190.023682 
	C1874.902466,3183.936768 1872.058594,3174.905762 1866.874390,3167.340088 
	C1872.184692,3154.599365 1885.085938,3148.839111 1890.623413,3136.844727 
	C1887.849365,3126.311523 1884.981567,3115.423096 1881.689819,3102.924316 
	C1870.040039,3099.328613 1857.556152,3095.475586 1845.233521,3091.672363 
	C1844.020386,3082.537354 1843.361572,3074.717285 1845.709595,3066.102051 
	C1857.857300,3062.616211 1869.839355,3059.178223 1881.619751,3055.797852 
	C1884.692139,3043.943604 1887.509155,3033.074219 1890.640869,3020.991211 
	C1882.019653,3012.522217 1873.077393,3003.737793 1863.434326,2994.265137 
	C1867.296631,2983.313232 1874.397095,2974.611084 1880.821045,2964.833496 
	C1893.584351,2963.635010 1904.554565,2972.632812 1916.223633,2972.295410 
	C1923.917114,2964.666260 1930.947998,2957.693848 1938.925659,2949.782959 
	C1936.602295,2938.759277 1934.026001,2926.535645 1931.338623,2913.785156 
	C1939.193970,2906.633301 1948.836060,2904.002441 1958.029663,2899.385742 
	C1969.062988,2906.238525 1975.985840,2917.307129 1986.847534,2925.673096 
	C1996.578491,2923.260742 2006.734985,2920.742920 2017.551270,2918.061523 
	C2020.371338,2906.902588 2023.116333,2896.040771 2025.948730,2884.833252 
	C2036.565308,2880.792236 2047.059692,2882.614258 2058.840820,2883.315918 
	C2062.336426,2894.510986 2065.859619,2905.794189 2069.717529,2918.150146 
	C2079.435059,2920.937256 2089.505371,2923.825684 2100.596436,2927.006836 
	C2108.925293,2919.300293 2117.159668,2911.681396 2125.775879,2903.709229 
	C2135.981689,2906.034424 2143.474365,2912.386230 2151.625000,2917.961182 
	C2152.052490,2930.138428 2145.428467,2940.223145 2144.569824,2952.657227 
	C2151.920898,2960.108887 2159.751953,2968.047119 2168.060547,2976.469482 
	C2177.848389,2973.597656 2187.338867,2970.812988 2197.562500,2967.813232 
	C2207.635986,2975.024414 2211.212891,2986.540039 2216.707520,2997.824951 
	C2209.215820,3005.565430 2201.885254,3013.139160 2193.832520,3021.459229 
	C2196.262939,3031.563965 2198.719238,3041.775146 2201.348389,3052.705078 
	C2211.693848,3056.625488 2222.117188,3060.575684 2232.390625,3064.468994 
	C2232.390625,3074.620117 2232.390625,3083.757080 2232.390625,3093.186523 
	C2221.860596,3097.540039 2212.105957,3101.572754 2201.883057,3105.799316 
	C2199.251953,3115.314209 2196.616699,3124.843994 2193.611084,3135.713379 
	C2200.020508,3142.737793 2206.659424,3150.013672 2213.828369,3157.870361 
	C2212.204102,3168.687988 2204.162354,3176.121582 2199.747070,3185.536621 
	C2188.064941,3184.598877 2177.522705,3183.752441 2168.041260,3182.991211 
	C2160.043701,3190.596191 2152.900879,3197.388428 2145.680908,3204.254395 
	C2147.861328,3214.337158 2149.942627,3223.962402 2152.092529,3233.903076 
	C2142.996338,3241.716797 2133.509277,3247.436279 2122.483643,3251.448486 
	C2115.039795,3244.501709 2107.815674,3237.759766 2100.406982,3230.845459 
	C2090.304443,3233.445557 2080.712646,3235.913818 2069.730957,3238.739990 
	C2066.727295,3248.300293 2063.601074,3258.250244 2060.339600,3268.631592 
	C2049.757324,3272.885742 2039.230713,3270.995117 2029.215454,3271.213867 
	C2020.221680,3261.937012 2022.086670,3248.867676 2014.405884,3239.011719 
	C2004.955933,3236.444336 1994.799438,3233.685059 1983.955444,3230.738770 
	C1975.814087,3237.800049 1967.826904,3244.727539 1958.600464,3252.040527 
M1892.729248,3112.722900 
	C1894.741699,3122.337158 1900.190552,3131.142578 1900.087158,3141.421631 
	C1892.069214,3149.767822 1884.323120,3157.830566 1876.056274,3166.435791 
	C1879.758179,3171.518066 1882.744873,3175.618652 1885.345093,3179.188477 
	C1897.755737,3177.542969 1907.450073,3170.005859 1916.105713,3170.822510 
	C1928.158203,3183.391357 1938.238037,3193.902832 1949.983521,3206.151367 
	C1949.170044,3210.023438 1947.667969,3217.121094 1946.192871,3224.224121 
	C1945.653320,3226.821045 1944.906494,3229.413330 1944.729492,3232.039795 
	C1944.383789,3237.170654 1951.626587,3242.036865 1956.078979,3239.544922 
	C1958.926880,3237.951416 1961.440186,3235.677246 1963.888550,3233.469971 
	C1969.252686,3228.634033 1974.479858,3223.646240 1979.420044,3219.040039 
	C1995.531128,3223.163818 2010.184082,3226.914307 2025.534424,3230.843506 
	C2028.236816,3239.213623 2030.704834,3247.434570 2033.563354,3255.517334 
	C2035.586792,3261.239014 2038.810303,3263.110352 2044.038818,3262.639893 
	C2048.651855,3262.224854 2050.634521,3259.440186 2052.265869,3255.324951 
	C2055.641602,3246.811279 2055.461426,3236.862549 2061.750000,3229.958984 
	C2076.433594,3226.256348 2090.430908,3222.726807 2103.184326,3219.510742 
	C2113.384521,3225.457520 2117.389160,3235.877686 2127.759277,3240.249023 
	C2131.817139,3237.578369 2136.066895,3234.781250 2140.670166,3231.751709 
	C2138.211182,3220.691650 2135.941162,3210.480713 2134.360596,3203.370605 
	C2145.633057,3191.814941 2154.868896,3182.346924 2165.583740,3171.362793 
	C2174.746826,3172.425537 2185.783936,3173.705811 2197.344238,3175.046387 
	C2199.917480,3170.488037 2202.144043,3166.544189 2204.762939,3161.904785 
	C2197.647949,3153.749512 2190.721191,3145.810303 2183.828857,3137.910156 
	C2187.547607,3124.002686 2191.118652,3110.646484 2194.668213,3097.371094 
	C2204.874512,3093.402344 2214.663818,3089.595703 2224.374023,3085.819824 
	C2224.374023,3080.162842 2224.374023,3075.694580 2224.374023,3070.714600 
	C2213.573486,3066.232910 2203.295654,3061.968262 2193.862061,3058.053711 
	C2189.913086,3043.305176 2186.341553,3029.966797 2182.805176,3016.759277 
	C2190.881348,3008.448730 2198.219727,3000.897217 2206.116943,2992.770508 
	C2203.115723,2987.625244 2200.541260,2983.211914 2197.636230,2978.231689 
	C2186.027588,2981.014160 2175.232910,2983.601562 2166.742432,2985.636719 
	C2154.939209,2973.643555 2144.724854,2963.264893 2133.501953,2951.861328 
	C2133.777588,2942.695312 2140.491211,2932.512939 2139.220947,2920.946289 
	C2136.531006,2919.231201 2134.420410,2917.640381 2132.086914,2916.509277 
	C2131.045166,2916.004395 2129.555420,2916.424072 2127.260498,2916.424072 
	C2120.131348,2923.048096 2112.416992,2930.215332 2104.644043,2937.437256 
	C2090.095215,2933.357422 2076.169434,2929.452393 2061.818115,2925.427979 
	C2058.630371,2915.174561 2055.536865,2905.053467 2052.277588,2894.985596 
	C2051.917969,2893.874512 2050.608887,2893.070801 2049.086670,2891.412598 
	C2046.514771,2891.273193 2043.240601,2890.843262 2039.998779,2891.017334 
	C2038.150024,2891.116943 2036.354248,2892.201416 2034.785400,2892.753906 
	C2028.697021,2903.523926 2030.674683,2916.637939 2023.964478,2926.029541 
	C2009.586914,2929.333496 1996.120850,2932.427979 1982.164551,2935.635010 
	C1973.564453,2927.097656 1965.151245,2918.745850 1956.107788,2909.768555 
	C1950.870728,2912.375488 1946.358887,2914.621338 1942.095459,2916.743408 
	C1942.423950,2930.650391 1949.848755,2942.097900 1948.561279,2954.692139 
	C1938.340210,2964.714111 1928.487305,2974.375488 1919.148071,2983.532959 
	C1908.200562,2980.614014 1898.621094,2977.957275 1888.972534,2975.580811 
	C1887.195312,2975.143066 1885.137939,2975.842529 1882.553833,2976.076416 
	C1879.916626,2980.382812 1877.210449,2984.802002 1874.462402,2989.289551 
	C1880.845703,3000.526855 1892.997803,3005.160400 1900.336670,3015.285156 
	C1896.344727,3031.038330 1892.298584,3047.006348 1888.281738,3062.857910 
	C1877.476685,3070.513672 1862.873901,3066.078613 1853.157837,3074.337158 
	C1851.601562,3080.489990 1853.557007,3084.294434 1858.885498,3085.895752 
	C1868.389404,3088.751465 1877.972900,3091.342529 1888.492920,3094.318604 
	C1889.735352,3099.441406 1890.963013,3104.503174 1892.729248,3112.722900 
z"/>
<path fill="#080504" opacity="1.000000" stroke="none" 
	d="
M1948.966797,1239.483887 
	C1963.975586,1241.141602 1977.215942,1242.326416 1990.319702,1244.382080 
	C1995.397095,1245.178711 2000.639038,1247.205933 2004.968750,1249.979614 
	C2012.421387,1254.753906 2013.901245,1263.566406 2009.022461,1270.954346 
	C2002.654175,1280.597900 1995.043335,1288.560791 1982.588623,1290.201172 
	C1970.756958,1291.759399 1959.070190,1294.879883 1947.210571,1295.664917 
	C1921.925049,1297.338745 1897.144287,1301.524414 1872.655640,1307.808105 
	C1861.050293,1310.785645 1849.386353,1313.335571 1837.268433,1312.650024 
	C1817.449341,1311.528687 1807.070068,1292.689453 1817.057373,1275.489868 
	C1821.827271,1267.275513 1828.593628,1260.979248 1837.505493,1257.199341 
	C1844.830811,1254.092529 1852.209229,1251.081909 1859.376099,1247.637329 
	C1877.115112,1239.111206 1895.586182,1235.009888 1915.341431,1237.026367 
	C1925.911499,1238.105347 1936.541138,1238.600342 1948.966797,1239.483887 
z"/>
<path fill="#080504" opacity="1.000000" stroke="none" 
	d="
M2259.725342,1239.166504 
	C2270.099854,1242.754150 2279.206543,1245.158936 2287.515625,1249.203247 
	C2300.970703,1255.752197 2311.989746,1265.246460 2317.583496,1279.783691 
	C2320.188965,1286.555298 2318.483154,1293.758301 2312.092285,1297.063354 
	C2302.659180,1301.941528 2292.715576,1306.538330 2281.659668,1302.344727 
	C2257.985596,1293.364868 2233.077148,1293.486084 2208.784668,1295.541992 
	C2189.487549,1297.175049 2173.501465,1293.662109 2158.676025,1281.888428 
	C2151.402588,1276.112427 2143.521973,1271.100464 2136.255371,1265.316895 
	C2133.211670,1262.894531 2130.695068,1259.593384 2128.572998,1256.284912 
	C2125.977295,1252.238159 2127.550049,1246.413818 2131.830322,1244.170532 
	C2135.300049,1242.352051 2139.133301,1240.379883 2142.913330,1240.134033 
	C2173.447266,1238.149536 2203.994141,1236.215332 2234.567383,1235.082520 
	C2242.355713,1234.793945 2250.252686,1237.428223 2259.725342,1239.166504 
z"/>
<path fill="#00A2F7" opacity="1.000000" stroke="none" 
	d="
M1892.459961,3111.144043 
	C1890.963013,3104.503174 1889.735352,3099.441406 1888.492920,3094.318604 
	C1877.972900,3091.342529 1868.389404,3088.751465 1858.885498,3085.895752 
	C1853.557007,3084.294434 1851.601562,3080.489990 1853.157837,3074.337158 
	C1862.873901,3066.078613 1877.476685,3070.513672 1888.281738,3062.857910 
	C1892.298584,3047.006348 1896.344727,3031.038330 1900.336670,3015.285156 
	C1892.997803,3005.160400 1880.845703,3000.526855 1874.462402,2989.289551 
	C1877.210449,2984.802002 1879.916626,2980.382812 1882.553833,2976.076416 
	C1885.137939,2975.842529 1887.195312,2975.143066 1888.972534,2975.580811 
	C1898.621094,2977.957275 1908.200562,2980.614014 1919.148071,2983.532959 
	C1928.487305,2974.375488 1938.340210,2964.714111 1948.561279,2954.692139 
	C1949.848755,2942.097900 1942.423950,2930.650391 1942.095459,2916.743408 
	C1946.358887,2914.621338 1950.870728,2912.375488 1956.107788,2909.768555 
	C1965.151245,2918.745850 1973.564453,2927.097656 1982.164551,2935.635010 
	C1996.120850,2932.427979 2009.586914,2929.333496 2023.964478,2926.029541 
	C2030.674683,2916.637939 2028.697021,2903.523926 2034.785400,2892.753906 
	C2036.354248,2892.201416 2038.150024,2891.116943 2039.998779,2891.017334 
	C2043.240601,2890.843262 2046.514771,2891.273193 2049.086670,2891.412598 
	C2050.608887,2893.070801 2051.917969,2893.874512 2052.277588,2894.985596 
	C2055.536865,2905.053467 2058.630371,2915.174561 2061.818115,2925.427979 
	C2076.169434,2929.452393 2090.095215,2933.357422 2104.644043,2937.437256 
	C2112.416992,2930.215332 2120.131348,2923.048096 2127.260498,2916.424072 
	C2129.555420,2916.424072 2131.045166,2916.004395 2132.086914,2916.509277 
	C2134.420410,2917.640381 2136.531006,2919.231201 2139.220947,2920.946289 
	C2140.491211,2932.512939 2133.777588,2942.695312 2133.501953,2951.861328 
	C2144.724854,2963.264893 2154.939209,2973.643555 2166.742432,2985.636719 
	C2175.232910,2983.601562 2186.027588,2981.014160 2197.636230,2978.231689 
	C2200.541260,2983.211914 2203.115723,2987.625244 2206.116943,2992.770508 
	C2198.219727,3000.897217 2190.881348,3008.448730 2182.805176,3016.759277 
	C2186.341553,3029.966797 2189.913086,3043.305176 2193.862061,3058.053711 
	C2203.295654,3061.968262 2213.573486,3066.232910 2224.374023,3070.714600 
	C2224.374023,3075.694580 2224.374023,3080.162842 2224.374023,3085.819824 
	C2214.663818,3089.595703 2204.874512,3093.402344 2194.668213,3097.371094 
	C2191.118652,3110.646484 2187.547607,3124.002686 2183.828857,3137.910156 
	C2190.721191,3145.810303 2197.647949,3153.749512 2204.762939,3161.904785 
	C2202.144043,3166.544189 2199.917480,3170.488037 2197.344238,3175.046387 
	C2185.783936,3173.705811 2174.746826,3172.425537 2165.583740,3171.362793 
	C2154.868896,3182.346924 2145.633057,3191.814941 2134.360596,3203.370605 
	C2135.941162,3210.480713 2138.211182,3220.691650 2140.670166,3231.751709 
	C2136.066895,3234.781250 2131.817139,3237.578369 2127.759277,3240.249023 
	C2117.389160,3235.877686 2113.384521,3225.457520 2103.184326,3219.510742 
	C2090.430908,3222.726807 2076.433594,3226.256348 2061.750000,3229.958984 
	C2055.461426,3236.862549 2055.641602,3246.811279 2052.265869,3255.324951 
	C2050.634521,3259.440186 2048.651855,3262.224854 2044.038818,3262.639893 
	C2038.810303,3263.110352 2035.586792,3261.239014 2033.563354,3255.517334 
	C2030.704834,3247.434570 2028.236816,3239.213623 2025.534424,3230.843506 
	C2010.184082,3226.914307 1995.531128,3223.163818 1979.420044,3219.040039 
	C1974.479858,3223.646240 1969.252686,3228.634033 1963.888550,3233.469971 
	C1961.440186,3235.677246 1958.926880,3237.951416 1956.078979,3239.544922 
	C1951.626587,3242.036865 1944.383789,3237.170654 1944.729492,3232.039795 
	C1944.906494,3229.413330 1945.653320,3226.821045 1946.192871,3224.224121 
	C1947.667969,3217.121094 1949.170044,3210.023438 1949.983521,3206.151367 
	C1938.238037,3193.902832 1928.158203,3183.391357 1916.105713,3170.822510 
	C1907.450073,3170.005859 1897.755737,3177.542969 1885.345093,3179.188477 
	C1882.744873,3175.618652 1879.758179,3171.518066 1876.056274,3166.435791 
	C1884.323120,3157.830566 1892.069214,3149.767822 1900.087158,3141.421631 
	C1900.190552,3131.142578 1894.741699,3122.337158 1892.459961,3111.144043 
M2147.584961,3031.334229 
	C2145.150635,3026.603760 2142.964355,3021.724854 2140.243408,3017.165527 
	C2112.378418,2970.472656 2056.533203,2950.259766 2005.215698,2968.199707 
	C1959.526733,2984.172119 1928.860718,3026.304443 1928.130615,3074.405762 
	C1927.422974,3121.019287 1954.737305,3164.747314 1999.856689,3181.962158 
	C2045.480835,3199.368652 2095.874512,3188.239502 2127.375000,3151.748047 
	C2157.278076,3117.106934 2164.353516,3077.574707 2147.584961,3031.334229 
z"/>
<path fill="#080D11" opacity="1.000000" stroke="none" 
	d="
M2148.099121,3032.815918 
	C2164.353516,3077.574707 2157.278076,3117.106934 2127.375000,3151.748047 
	C2095.874512,3188.239502 2045.480835,3199.368652 1999.856689,3181.962158 
	C1954.737305,3164.747314 1927.422974,3121.019287 1928.130615,3074.405762 
	C1928.860718,3026.304443 1959.526733,2984.172119 2005.215698,2968.199707 
	C2056.533203,2950.259766 2112.378418,2970.472656 2140.243408,3017.165527 
	C2142.964355,3021.724854 2145.150635,3026.603760 2148.099121,3032.815918 
M2138.771973,3106.248779 
	C2140.164062,3100.542480 2141.981934,3094.899414 2142.838379,3089.113770 
	C2143.867920,3082.159180 2146.134521,3074.933105 2140.926025,3065.003418 
	C2133.869141,2992.342041 2053.794189,2959.166748 2001.186035,2984.403564 
	C1973.878540,2996.906738 1955.634033,3017.722412 1946.643311,3046.112549 
	C1940.171021,3066.549805 1938.769409,3087.358887 1948.440674,3110.505615 
	C1953.886475,3120.194824 1958.121094,3130.862793 1965.010010,3139.385742 
	C1984.113647,3163.020264 2008.748657,3176.419678 2043.442139,3175.496826 
	C2046.072510,3175.376953 2048.707764,3175.322510 2051.332520,3175.127930 
	C2086.175537,3172.542480 2112.048828,3156.044434 2130.806641,3123.519531 
	C2132.740967,3118.469971 2134.675293,3113.420410 2138.771973,3106.248779 
z"/>
<path fill="#C8C9C9" opacity="1.000000" stroke="none" 
	d="
M2040.028564,3175.224121 
	C2008.748657,3176.419678 1984.113647,3163.020264 1965.010010,3139.385742 
	C1958.121094,3130.862793 1953.886475,3120.194824 1948.557495,3107.916504 
	C1949.905273,3103.468262 1951.136353,3101.609131 1953.461182,3100.622559 
	C1975.870239,3121.760010 2002.772827,3121.642334 2027.356934,3100.604492 
	C2025.682983,3096.258789 2023.904541,3091.641602 2022.278564,3087.419922 
	C2013.350586,3089.947021 2005.886841,3092.914551 1998.151978,3094.076660 
	C1980.261719,3096.764893 1968.414185,3087.391602 1966.746460,3069.641357 
	C1966.327026,3065.177734 1967.580444,3060.556641 1969.587891,3055.329346 
	C1977.476440,3053.805664 1983.830933,3052.347168 1990.209717,3052.231201 
	C2009.091797,3051.887695 2027.983398,3052.073730 2047.115479,3053.777344 
	C2045.514404,3094.370117 2043.669189,3133.237793 2041.379883,3172.531738 
	C2040.446533,3173.638184 2040.144165,3174.393799 2040.028564,3175.224121 
z"/>
<path fill="#B8BFBF" opacity="1.000000" stroke="none" 
	d="
M2046.871338,3052.052490 
	C2027.983398,3052.073730 2009.091797,3051.887695 1990.209717,3052.231201 
	C1983.830933,3052.347168 1977.476440,3053.805664 1969.556519,3053.608643 
	C1969.155640,3048.423584 1972.566528,3048.324951 1975.871948,3048.356445 
	C1991.173950,3048.503174 2006.474854,3048.759521 2021.776733,3048.931152 
	C2027.658691,3048.997070 2033.541992,3048.941895 2038.229004,3048.941895 
	C2044.784912,3041.437500 2043.951172,3033.849121 2044.378296,3026.675781 
	C2045.939941,3000.452393 2033.700317,2988.786621 2010.896851,2988.009766 
	C2007.843994,2986.574463 2005.913940,2985.453857 2003.984009,2984.333496 
	C2053.794189,2959.166748 2133.869141,2992.342041 2139.907227,3066.494141 
	C2138.046631,3067.859619 2137.204834,3067.734619 2136.132812,3066.197754 
	C2121.981934,3036.157227 2103.545166,3031.758057 2067.320557,3048.248047 
	C2063.392578,3045.995605 2059.820312,3042.654541 2055.768311,3041.904541 
	C2048.364746,3040.533936 2048.131348,3047.105225 2046.871338,3052.052490 
z"/>
<path fill="#B8BFBF" opacity="1.000000" stroke="none" 
	d="
M2041.735352,3175.360352 
	C2040.144165,3174.393799 2040.446533,3173.638184 2043.325317,3172.925293 
	C2050.188477,3172.561035 2054.941406,3174.421143 2060.236084,3170.362549 
	C2062.368408,3156.510742 2060.919922,3141.205322 2063.589844,3125.613037 
	C2071.149414,3128.061768 2077.147949,3130.754639 2083.427979,3131.890381 
	C2098.866455,3134.682861 2112.244629,3129.384277 2125.218262,3120.565430 
	C2127.018311,3122.556885 2127.843506,3123.886230 2128.668457,3125.215820 
	C2112.048828,3156.044434 2086.175537,3172.542480 2051.332520,3175.127930 
	C2048.707764,3175.322510 2046.072510,3175.376953 2041.735352,3175.360352 
z"/>
<path fill="#A8A7A6" opacity="1.000000" stroke="none" 
	d="
M2002.584961,2984.368652 
	C2005.913940,2985.453857 2007.843994,2986.574463 2009.654297,2988.603027 
	C1995.425781,2992.369385 1983.266724,2999.011230 1973.949951,3009.867188 
	C1951.485107,3036.043701 1940.759888,3065.278076 1952.367432,3099.750000 
	C1951.136353,3101.609131 1949.905273,3103.468262 1948.422363,3106.485840 
	C1938.769409,3087.358887 1940.171021,3066.549805 1946.643311,3046.112549 
	C1955.634033,3017.722412 1973.878540,2996.906738 2002.584961,2984.368652 
z"/>
<path fill="#575757" opacity="1.000000" stroke="none" 
	d="
M2136.363281,3067.609619 
	C2137.204834,3067.734619 2138.046631,3067.859619 2140.156006,3068.140137 
	C2146.134521,3074.933105 2143.867920,3082.159180 2142.838379,3089.113770 
	C2141.981934,3094.899414 2140.164062,3100.542480 2137.111328,3106.737793 
	C2134.856689,3106.312012 2134.154053,3105.489990 2133.571045,3103.138184 
	C2134.653564,3090.214111 2135.508301,3078.911865 2136.363281,3067.609619 
z"/>
<path fill="#A8A7A6" opacity="1.000000" stroke="none" 
	d="
M2133.343262,3104.760254 
	C2134.154053,3105.489990 2134.856689,3106.312012 2136.030273,3107.798828 
	C2134.675293,3113.420410 2132.740967,3118.469971 2129.737549,3124.367676 
	C2127.843506,3123.886230 2127.018311,3122.556885 2125.687744,3119.395508 
	C2127.902344,3113.295898 2130.622803,3109.028076 2133.343262,3104.760254 
z"/>
<path fill="#080D11" opacity="1.000000" stroke="none" 
	d="
M1953.461182,3100.622559 
	C1940.759888,3065.278076 1951.485107,3036.043701 1973.949951,3009.867188 
	C1983.266724,2999.011230 1995.425781,2992.369385 2010.777344,2988.917725 
	C2033.700317,2988.786621 2045.939941,3000.452393 2044.378296,3026.675781 
	C2043.951172,3033.849121 2044.784912,3041.437500 2038.229004,3048.941895 
	C2033.541992,3048.941895 2027.658691,3048.997070 2021.776733,3048.931152 
	C2006.474854,3048.759521 1991.173950,3048.503174 1975.871948,3048.356445 
	C1972.566528,3048.324951 1969.155640,3048.423584 1968.033569,3054.287354 
	C1967.580444,3060.556641 1966.327026,3065.177734 1966.746460,3069.641357 
	C1968.414185,3087.391602 1980.261719,3096.764893 1998.151978,3094.076660 
	C2005.886841,3092.914551 2013.350586,3089.947021 2022.278564,3087.419922 
	C2023.904541,3091.641602 2025.682983,3096.258789 2027.356934,3100.604492 
	C2002.772827,3121.642334 1975.870239,3121.760010 1953.461182,3100.622559 
M2013.658691,3002.774658 
	C1992.014160,3005.263428 1980.098511,3014.897461 1977.817261,3032.243408 
	C1994.249023,3032.374023 2010.649170,3034.333008 2027.287842,3030.960938 
	C2028.412476,3019.462646 2030.016357,3008.764404 2013.658691,3002.774658 
z"/>
<path fill="#080D11" opacity="1.000000" stroke="none" 
	d="
M2133.571045,3103.138184 
	C2130.622803,3109.028076 2127.902344,3113.295898 2124.712891,3118.733643 
	C2112.244629,3129.384277 2098.866455,3134.682861 2083.427979,3131.890381 
	C2077.147949,3130.754639 2071.149414,3128.061768 2063.589844,3125.613037 
	C2060.919922,3141.205322 2062.368408,3156.510742 2060.236084,3170.362549 
	C2054.941406,3174.421143 2050.188477,3172.561035 2043.769531,3172.499512 
	C2043.669189,3133.237793 2045.514404,3094.370117 2047.115479,3053.777344 
	C2048.131348,3047.105225 2048.364746,3040.533936 2055.768311,3041.904541 
	C2059.820312,3042.654541 2063.392578,3045.995605 2067.320557,3048.248047 
	C2103.545166,3031.758057 2121.981934,3036.157227 2136.132812,3066.197754 
	C2135.508301,3078.911865 2134.653564,3090.214111 2133.571045,3103.138184 
M2119.601562,3085.139404 
	C2119.514893,3081.838623 2119.855713,3078.460205 2119.271973,3075.249512 
	C2115.374023,3053.805176 2099.689453,3045.647949 2079.615234,3054.566162 
	C2076.615723,3055.898682 2073.809570,3057.695068 2070.998779,3059.415527 
	C2066.745117,3062.019775 2064.533447,3065.780029 2064.558594,3070.890381 
	C2064.623535,3084.048340 2064.580566,3097.206543 2064.580566,3110.112793 
	C2091.996094,3126.510254 2109.632324,3119.975342 2119.073975,3090.308594 
	C2119.271973,3089.686768 2119.285400,3089.006104 2119.601562,3085.139404 
z"/>
<path fill="#C8C9C9" opacity="1.000000" stroke="none" 
	d="
M2015.303223,3003.151123 
	C2030.016357,3008.764404 2028.412476,3019.462646 2027.287842,3030.960938 
	C2010.649170,3034.333008 1994.249023,3032.374023 1977.817261,3032.243408 
	C1980.098511,3014.897461 1992.014160,3005.263428 2015.303223,3003.151123 
z"/>
<path fill="#B8BFBF" opacity="1.000000" stroke="none" 
	d="
M2119.493164,3086.746094 
	C2119.285400,3089.006104 2119.271973,3089.686768 2119.073975,3090.308594 
	C2109.632324,3119.975342 2091.996094,3126.510254 2064.580566,3110.112793 
	C2064.580566,3097.206543 2064.623535,3084.048340 2064.558594,3070.890381 
	C2064.533447,3065.780029 2066.745117,3062.019775 2070.998779,3059.415527 
	C2073.809570,3057.695068 2076.615723,3055.898682 2079.615234,3054.566162 
	C2099.689453,3045.647949 2115.374023,3053.805176 2119.271973,3075.249512 
	C2119.855713,3078.460205 2119.514893,3081.838623 2119.493164,3086.746094 
z"/>
</svg>