<?xml version="1.0" encoding="UTF-8"?>
<svg id="Layer_2" data-name="Layer 2" xmlns="http://www.w3.org/2000/svg" viewBox="0 0 819.384 766">
  <defs>
    <style>
      .cls-1 {
        fill: #03558b;
      }
    </style>
  </defs>
  <g id="Layer_1-2" data-name="Layer 1">
    <path class="cls-1" d="M389,0v116h-242v46h242v116h-242v47l540.541-.041c84.643,4.354,136.589,62.534,131.501,147.583-4.153,69.409-68.457,126.407-136.493,130.507-52.846,3.184-108.915-2.441-162.099-.099-1.025-.218-3.449.723-3.449,1.551v161.5h-147v-325H0V0h389ZM517,487h135.5c1.371,0,8.292-3.152,9.832-4.168,14.467-9.54,12.543-35.245-5.315-40.349-.947-.271-7.022-1.483-7.517-1.483h-132.5v46Z"/>
  </g>
</svg>